<?xml version="1.0" encoding="utf-8"?>
<!-- Generator: Adobe Illustrator 24.3.0, SVG Export Plug-In . SVG Version: 6.00 Build 0)  -->
<svg version="1.1" id="Layer_1" xmlns="http://www.w3.org/2000/svg" xmlns:xlink="http://www.w3.org/1999/xlink" x="0px" y="0px"
	 viewBox="0 0 1145.3 725" enable-background="new 0 0 1145.3 725" xml:space="preserve">
<path id="Path_48" fill="#FEE67F" d="M10.1,384.6c-7.5-25.9-9-53.3-5.2-80C34.2,101.8,122.7,35.9,332.6,4.9
	c205.8-27.8,251.7,160.5,388.6,179.6s162.5-15.4,297.4,14.4c98.5,21.8,167.3,186.1,81.2,358.7c-47.7,104-374,188.5-643.1,160.6
	c-74.8-7.7-156.5-46.7-190.6-63.4C142.1,594.1,40.6,489.7,10.1,384.6z"/>
<g id="prins-svg">
	<path fill="#42210B" d="M663.3,630.7c0,0,26.6,85.7,185.8,88c0,0-26.4-4.8-29.7-20.2c0,0,70.8,55.1,117.2,0.4
		c0,0-37.5,11.1-47.6-4.2c0,0,92.8,32.7,137.4-133.3c0,0-12.7-0.8-34.3,33.3c0,0-4.4-31.1,77.7-65.2c0,0-33.5-41.4-106.9-15.7
		c0,0,24.4-14.7,42-12.5c0,0-30.5-38.9-112.8,57.7c0,0,18.8-23.2,10.5-44.4c0,0-44.6,42.8-37.5,68c7.1,25.2-34.3,55.7-40.5,58.7
		c0,0,17.1-10.3,17.3-25.2c0,0-93.6,60.7-148.1-16.5L663.3,630.7z"/>
	<path fill="#42210B" d="M886,723.9c-29.5,0-56.7-17.3-64.8-23c5.2,12.5,27.8,16.7,28,16.7l-0.2,2c-45.6-0.6-109.1-9.1-153.1-45.2
		c-26.4-21.6-33.5-43.4-33.5-43.6l-0.2-0.6l31.3-32.3l0.6,1c22.4,31.7,53.7,44.2,93.4,36.7c18.8-3.6,36.9-10.7,53.3-20.6l1.6-1v1.8
		c-0.2,5.4-2.2,10.9-5.9,15.1c13.7-11.5,31.9-31.3,27.2-48.4c-7.1-25.4,35.9-67.2,37.7-69l1-1l0.6,1.4c5,12.7,0.6,26-4,34.9
		c41.6-46.4,69.2-56.7,85.3-56.7h0.8c13.7,0.2,19.8,7.9,20,8.1l1.4,1.8l-2.4-0.4c-10.1-1.4-23,3.2-31.5,7.3
		c32.9-9.1,56.7-4.4,71.2,1.6c17.6,7.1,26,17.3,26.2,17.8l0.8,1l-1.2,0.4c-42,17.3-60.7,33.9-69,44.8c-3.8,4.6-6.5,10.1-7.9,15.9
		c20.6-30.9,32.7-30.7,33.3-30.5h1.2l-0.2,1.2c-17.6,65.4-44.6,107.9-80.1,126.7c-12.7,6.9-26.8,10.3-41.2,9.9
		c-4.8,0-9.7-0.6-14.3-1.8c11.9,10.9,44.2,1.6,44.4,1.4l3-1l-2,2.4C921.7,717.7,903.6,723.9,886,723.9z M817.8,696.1l2,1.6
		c0.6,0.6,68.6,52.2,113.8,2.8c-9.3,2.2-36.7,7.9-45.6-5.4l-1.6-2.4l2.8,1c0.2,0,26.4,9.1,57.3-7.3c34.7-18.4,61.3-60.1,78.7-124.1
		c-3.6,0.8-15.1,5.9-32.3,32.5l-1.4,2.2l-0.4-2.6c-0.2-1.2-3.6-31.9,77.1-65.6c-7.1-7.1-15.5-12.5-24.8-16.1
		c-15.9-6.5-42.6-11.3-80.3,1.8l-8.7,3l7.9-4.8c1-0.6,22.6-13.5,39.7-12.7c-4.8-3.6-10.7-5.6-16.7-5.6h-0.6
		c-16.7,0-46.2,11.5-92,65.2l-1.4-1.2c0.2-0.2,17.6-22,10.9-42.2c-6.7,6.7-42.4,43.8-36.3,66c7.1,25.4-33.9,56.5-41.2,59.9l-1-1.6
		c0.2,0,15.3-9.5,16.7-22.6c-16.1,9.5-33.9,16.1-52.2,20c-27.6,5-66.4,2.8-94.6-36.7l-29.3,29.9c1.2,3.4,9.1,22.8,32.9,42.2
		c41.2,33.5,99.3,42.8,143.6,44.4c-8.3-2.8-20.2-8.5-22.4-19L817.8,696.1z"/>
	<polygon fill="#FFFFFF" points="470.4,418.6 667.5,421.8 711.7,517.6 709.1,532.2 731.9,547.7 749.4,565.5 767.8,602.2 
		763.4,632.8 756.9,653.4 735.1,674.4 693.8,692.3 633,703.4 574.7,700.2 515,701.2 489.4,704.9 471.9,698.4 436.8,686.9 
		414.6,682.1 392,667.5 373.4,629.8 364.7,612.7 373.4,580.6 395.2,553.2 413.6,543.9 423.2,532.2 421.6,524.3 418.6,486.4 	"/>
	<path fill="#E6E6E6" d="M406.9,542.7c0,0,98.9,176.1-3.4,118.8l11.1,20.4c1.8,4,13.1,7.5,15.1,7.9l47.2,7.3l8.9-9.1l9.1-4
		l-56.5-110.8L421.6,530L406.9,542.7z"/>
	<path fill="#E6E6E6" d="M728.7,542.7c0,0-98.9,174.3,3.4,117.6L721,680.4c-1.8,4-12.9,7.5-14.9,7.7l-47.2,7.1l-8.9-9.1l-9.1-3.8
		l56.5-109.7l16.9-42.6L728.7,542.7z"/>
	<polygon fill="#E6E6E6" points="445.2,695.2 434.7,697 429.1,702.4 429.9,709.1 440.6,711.5 453.7,711.9 465.4,711.9 477.5,711.9 
		484.4,711.9 479.5,703.4 476.7,699.6 470.2,697.8 	"/>
	<polygon fill="#E6E6E6" points="648,712.7 652.8,703.4 653.8,700.2 663.9,697 681.1,695 690.7,697 697.4,697 702.2,700.2 
		702.2,709.1 694.6,711.9 	"/>
	<path fill="#E6E6E6" d="M651.2,695.4c0,0-17.1,9.7-46.8,3.6c-8.9-1.8-13.3-9.7-15.5-18.4c-7.7-30.5,5.9-108.1,22.6-132.1
		c0,0-30.3,45.6-29,51.6c1.2,6.1-5,23.2-5,23.2s-7.7,16.9-6.3,23c1.4,6.1-4.4,31.1-4,33.9c0.4,2.8-0.2,18.8,0,22.2
		c0.2,3.4,1.8,10.3,5.2,9.5c3.4-0.8,33.9,8.1,41,4.6c7.1-3.4,19,2.6,27.4-4.6s11.3-9.5,11.3-9.5L651.2,695.4z"/>
	<path fill="#E6E6E6" d="M481.1,695.4c0,0,17.1,9.7,46.8,3.6c8.9-1.8,13.3-9.7,15.5-18.4c7.7-30.5-5.9-108.1-22.6-131.9
		c0,0,30.3,45.6,29.1,51.6c-1.2,6.1,5,22.8,5,22.8s7.7,16.9,6.3,23c-1.4,6.1,4.4,31.1,4,33.9c-0.4,2.8,0.2,18.8,0,22.2
		c-0.2,3.4-1.8,10.3-5.2,9.5c-3.4-0.8-33.9,8.1-41,4.6c-7.1-3.4-19,2.6-27.4-4.6c-8.5-7.3-11.3-9.5-11.3-9.5L481.1,695.4z"/>
	<path fill="#E6E6E6" d="M521.9,549.7c0,0,37.3,25.2,44.4,54.5v50.6l-10.5-47.2c-2.2-10.3-6.7-20-12.7-28.4L521.9,549.7z"/>
	<path fill="#E6E6E6" d="M610.9,549.7c0,0-37.3,25.2-44.4,54.5v50.6l10.5-47.2c2.2-10.3,6.7-20,12.7-28.4L610.9,549.7z"/>
	<path fill="#C6A27D" d="M399.4,548.5c0,0-27,72.6,19.8,138.4c0,0-52.2-11.3-54.7-69.2C364.7,617.7,361.9,578.4,399.4,548.5z"/>
	<path fill="#C6A27D" d="M731.3,548.5c0,0,27,72.6-19.8,138.4c0,0,52.2-11.3,54.7-69.2C766,617.7,768.6,578.4,731.3,548.5z"/>
	<path fill="#C6A27D" d="M421.4,530.2c0,0,27.6-5.2,60.7-120.8l-25.2-5.2C457.1,404.1,405.1,444.4,421.4,530.2z"/>
	<path fill="#C6A27D" d="M711.9,531.2c0,0-27.6-5.2-60.7-120.6l25.2-5.2C676.2,405.3,728.3,445.4,711.9,531.2z"/>
	<path fill="#42210B" d="M678.2,406.1c8.7,9.3,16.1,19.6,21.8,31.1c2.8,5.6,5.4,11.5,7.7,17.6c4.4,12.1,6.9,24.6,7.3,37.5
		c0.2,6.5,0.2,12.7-0.4,19.2c-1.2,12.7-4,25.2-8.3,37.3c-1,3-2.2,6.1-3.4,8.9s-2.4,5.9-3.6,8.7c-2.4,5.9-5,11.5-7.7,17.3
		c-5.2,11.5-10.7,23-16.3,34.3c-11.1,22.6-23,45.2-35.9,66.8l-1.2-3c2.4,0.8,5,1.6,7.3,2.8c2.4,1.2,4.6,2.8,6.7,4.6
		c2.2,2,3.6,4.8,3.8,7.7c0.2,2.8-0.6,5.9-2,8.3c-3,4.4-7.5,7.9-12.7,9.7c-4.8,1.8-9.9,2.8-14.9,3.2c-10.1,0.6-20.2,0.2-30.1-1.4
		c-5-0.6-9.9-1.6-14.7-2.6c-4.8-1-9.7-2.2-14.5-3.4l-1.4-0.4v-1.6c-0.4-15.1,0-30.1,1.6-45.2c1.4-14.9,4-29.9,7.7-44.6
		c0.8-3.6,1.8-7.3,3-10.9l1.8-5.4l2-5.2c2.6-7.1,5.9-13.9,9.5-20.6c3.6-6.7,7.7-12.9,12.1-19c4.6-5.9,9.7-11.5,15.3-16.3
		c-5.2,5.2-10.1,11.1-14.3,17.1c-4.2,6.3-7.9,12.7-11.1,19.4c-3,6.7-5.9,13.7-8.1,20.8l-1.6,5.2l-1.6,5.2c-0.6,1.8-1,3.6-1.6,5.2
		c-0.6,1.6-1,3.6-1.4,5.4c-3.6,14.5-6.1,29-7.5,44c-1.6,14.7-2,29.7-1.6,44.6l-1.6-1.8c4.8,1,9.5,2.4,14.3,3.2
		c4.8,0.8,9.7,2,14.5,2.6c9.7,1.6,19.4,2,29.1,1.4c4.8-0.4,9.5-1.4,13.9-3c4.2-1.4,8.1-4,10.7-7.9c1-1.8,1.6-3.8,1.4-5.9
		c-0.2-2-1.2-3.8-2.6-5.2c-3.4-3-7.7-5.2-12.1-6.5l-2.6-0.8l1.4-2.2c12.9-21.6,24.6-44,35.7-66.6c5.6-11.3,10.9-22.8,16.1-34.1
		c2.6-5.6,5.2-11.5,7.7-17.1c1.2-2.8,2.4-5.9,3.6-8.7c1.2-2.8,2.2-5.9,3.2-8.7c4-11.7,6.9-24,7.9-36.3c1.2-12.3,0.6-24.8-1.8-37.1
		C704.7,449.1,694.2,425.7,678.2,406.1z"/>
	<path fill="#42210B" d="M660.1,716.6c-3.8,0-7.7,0-11.3,0h-11.3v-4c3.6,0,7.5,0,11.5,0c20.6,0.2,51.6,0.4,52.5-8.7
		c0.2-1-0.2-1.8-0.8-2.6c-1.4-1.4-5.6-4-19.2-4c-9.1,1.2-18.2,2-27.2,2.2l-0.4-4c9.1-1.4,18-2,27-2.2h0.2c14.5-1.8,28.6-6.1,42-12.5
		c25.2-14.1,32.1-27.8,32.1-27.8l0.2-0.2c12.3-20,14.1-44.6,4.6-66.2c-13.9-32.5-51.2-52-51.6-52.2l1.8-3.6
		c1.6,0.8,38.9,20.4,53.5,54.3c10.1,22.6,8.1,48.8-4.8,69.8c-0.8,1.6-8.3,15.1-33.9,29.7c-9.3,4.6-19.2,8.1-29.3,10.3
		c3,0.6,5.6,2,7.9,4c1.4,1.6,2.2,3.6,2,5.6C704.5,715.1,683.3,716.6,660.1,716.6z"/>
	<path fill="#42210B" d="M454.1,406.1c-15.9,19.4-26.4,42.8-30.5,67.8c-2.2,12.3-2.8,24.8-1.6,37.1c1.2,12.3,4,24.6,8.1,36.3
		c1,3,2.2,5.9,3.2,8.7c1,2.8,2.4,5.9,3.6,8.7c2.4,5.9,5,11.5,7.7,17.1c5.2,11.5,10.7,22.8,16.1,34.1c11.1,22.6,22.8,45,35.7,66.6
		l1.4,2.2l-2.6,0.8c-4.4,1.2-8.7,3.4-12.1,6.5c-1.4,1.4-2.4,3.2-2.6,5.2c-0.2,2,0.4,4,1.4,5.9c2.6,3.6,6.3,6.5,10.7,7.9
		c4.4,1.6,9.3,2.6,13.9,3c9.7,0.6,19.6,0.2,29.1-1.4c4.8-0.6,9.7-1.6,14.5-2.6c4.8-1,9.7-2.2,14.3-3.2l-1.6,1.8
		c0.4-14.9,0-29.7-1.6-44.6c-1.4-14.7-4-29.5-7.5-44c-0.4-1.8-1-3.6-1.4-5.4c-0.4-1.8-1-3.6-1.6-5.2l-1.6-5.2l-1.6-5.2
		c-2.2-7.1-5-13.9-8.1-20.8c-3.2-6.7-6.9-13.1-10.9-19.4c-4.2-6.1-9.1-11.9-14.3-17.1c5.6,5,10.7,10.5,15.3,16.3
		c4.4,6.1,8.5,12.3,12.1,19c3.6,6.7,6.7,13.5,9.5,20.6l2,5.2l1.8,5.4c1,3.6,2,7.3,3,10.9c3.6,14.7,6.3,29.5,7.7,44.6
		c1.6,14.9,2,30.1,1.6,45.2v1.6l-1.4,0.4c-4.8,1-9.7,2.4-14.5,3.4c-4.8,1-9.7,2-14.7,2.6c-9.9,1.6-20,2-30.1,1.4
		c-5-0.4-10.3-1.4-15.1-3.2c-5.2-1.6-9.7-5-12.9-9.5c-1.6-2.4-2.2-5.4-2-8.3c0.4-3,1.8-5.6,4-7.7c2-1.8,4.2-3.4,6.7-4.6
		c2.4-1.2,4.8-2.2,7.3-2.8l-1.2,3c-12.9-21.8-24.8-44.2-35.9-66.8c-5.6-11.3-10.9-22.8-16.1-34.3c-2.6-5.9-5.2-11.5-7.7-17.3
		c-1.2-2.8-2.4-5.9-3.6-8.7c-1.2-2.8-2.4-5.9-3.4-8.9c-4.2-12.1-7.1-24.6-8.3-37.3c-0.6-6.5-0.8-12.7-0.4-19.2
		c0.2-6.5,1-12.7,2.2-19.2c1.2-6.3,3-12.5,5.2-18.4c2.2-6.1,4.6-11.9,7.7-17.6C438.2,425.9,445.4,415.4,454.1,406.1z"/>
	<path fill="#42210B" d="M472.3,716.6c-23.2,0-44.2-1.4-45.2-12.5c-0.2-2.2,0.6-4.6,2.4-6.1c2.2-1.8,4.6-2.8,7.3-3.4
		c-35.3-8.1-53.5-25-62.7-39.5c-13.3-21.2-15.3-47.4-5.2-70.4c14.5-33.7,52-53.5,53.5-54.3l1.8,3.6c-0.4,0.2-37.7,19.8-51.6,52.2
		c-9.5,21.6-7.7,46.4,4.8,66.4c10.1,15.5,30.9,33.9,73.8,40.3c9.3,0,18.4,0.8,27.4,2.2l-0.4,4c-9.1-0.2-18.2-0.8-27.2-2.2
		c-8.3,0-15.7,1-18.8,3.8c-0.8,0.8-1.2,1.8-1.2,2.8c0.6,9.3,31.9,8.9,52.2,8.7c4,0,8.1,0,11.5,0v4c-3.6,0-7.5,0-11.5,0L472.3,716.6z
		"/>
	<path fill="#42210B" d="M517.9,695.4l-1.8,1.4c-4.2,3.4-7.3,8.5-8.1,13.9l-0.4,2.6h6.7l-0.6-4.4c-0.4-2.6,0-5.2,1.2-7.7
		C516.2,698.4,517.9,695.4,517.9,695.4z"/>
	<path fill="#42210B" d="M498.1,693.4l-1.8,1.4c-4.2,3.4-7.3,8.5-8.1,13.9l-0.4,2.6h6.7l-0.6-4.4c-0.4-2.6,0-5.2,1.2-7.7
		C496.5,696.6,498.1,693.4,498.1,693.4z"/>
	<path fill="#42210B" d="M613.3,695.4l1.8,1.4c4.2,3.4,7.3,8.5,8.1,13.9l0.4,2.6h-6.9l0.6-4.4c0.4-2.6,0-5.2-1.2-7.7
		C614.9,698.4,613.3,695.4,613.3,695.4z"/>
	<path fill="#42210B" d="M633,693.4l1.8,1.4c4.2,3.4,7.3,8.5,8.1,13.9l0.4,2.6h-6.9l0.6-4.4c0.4-2.6,0-5.2-1.2-7.7
		C634.7,696.6,633,693.4,633,693.4z"/>
	<path fill="#42210B" d="M677.8,699.8l1.6,1c3.4,2,5.9,5.2,6.7,9.1l0.4,1.6h-5.6l0.4-3c0.2-1.6,0-3.4-1-5
		C679,701.8,677.8,699.8,677.8,699.8z"/>
	<path fill="#42210B" d="M690.7,699.8l1.4,0.8c3,1.4,5,4,6.1,7.3l0.4,1.2h-5l0.4-2.2c0.2-1.4,0-2.8-0.8-4
		C692,701.4,690.7,699.8,690.7,699.8z"/>
	<path fill="#42210B" d="M453.7,700.2l-1.6,1c-3.4,2-5.9,5.2-6.7,9.1l-0.4,1.6h5.6l-0.4-3c-0.2-1.6,0-3.4,1-5
		C452.5,702.2,453.7,700.2,453.7,700.2z"/>
	<path fill="#42210B" d="M440.6,700.2l-1.4,0.8c-3,1.4-5,4-6.1,7.3l-0.4,1.2h5.2l-0.4-2.4c-0.2-1.4,0-2.8,0.8-3.8
		C439.4,701.8,440.6,700.2,440.6,700.2z"/>
	<path fill="#42210B" d="M663.3,94.4c0,0,76.5-64.8,142.2-48.8c0,0,25.8,159.2-28.2,174.7l-35.9,9.9l-70.4-97L663.3,94.4z"/>
	<path fill="#C6A27D" d="M722.4,163c0,0,0-88.6,73.6-110.8c0,0,34.5,104.3-36.7,166L722.4,163z"/>
	<path fill="#42210B" d="M727.3,128.7c3.4-3.6,7.3-6.9,11.3-9.7s8.3-5.4,12.9-7.5c4.4-2,9.3-3.4,14.1-4.2c4.8-0.6,9.9-0.2,14.7,1
		c-4.8-1-9.7-1.2-14.5-0.6c-4.8,1-9.5,2.4-13.9,4.6c-4.4,2.2-8.5,4.8-12.3,7.9c-3.8,3-7.5,6.3-10.7,9.9L727.3,128.7z"/>
	<path fill="#42210B" d="M721.6,161.8c4.6-4,9.7-7.9,14.9-11.1c5.2-3.2,10.9-5.9,16.7-8.1c5.9-2,11.9-3.2,18.2-3.6
		c6.1-0.4,12.3,0.2,18.2,2c-5.9-1.6-12.1-2.2-18.2-1.6c-6.1,0.6-12.1,2-17.8,4.2c-5.6,2.2-11.1,5-16.1,8.3
		c-5.2,3.2-10.1,7.1-14.5,11.1L721.6,161.8z"/>
	<path fill="#42210B" d="M476.5,96.8c0,0-76.5-64.8-142.2-48.8c0,0-25.8,159.2,28.2,174.7l35.9,9.9l70.4-97L476.5,96.8z"/>
	<path fill="#C6A27D" d="M417.4,165.4c0,0,0-88.6-73.6-110.8c0,0-34.5,104.3,36.7,166L417.4,165.4z"/>
	<path fill="#42210B" d="M411.1,132.3c-3.2-3.6-6.9-6.9-10.7-9.9c-3.8-3-8.1-5.6-12.3-7.9c-4.4-2.2-9.1-3.6-13.9-4.6
		c-4.8-0.8-9.9-0.6-14.5,0.6c4.8-1.2,9.7-1.6,14.7-1c4.8,0.8,9.7,2.2,14.1,4.2s8.9,4.6,12.7,7.5c4,2.8,7.9,6.1,11.3,9.7L411.1,132.3
		z"/>
	<path fill="#42210B" d="M417,165.4c-4.4-4.2-9.3-7.9-14.3-11.1c-5-3.2-10.5-6.1-16.1-8.3c-5.6-2.2-11.7-3.6-17.8-4.2
		s-12.3,0-18.2,1.6c5.9-1.8,12.1-2.4,18.2-2c6.1,0.4,12.1,1.6,18,3.8c5.9,2,11.5,4.8,16.7,8.1c5.2,3.2,10.3,6.9,14.9,10.9L417,165.4
		z"/>
	<path fill="#C6A27D" d="M831.4,240.1c0,0-26,68.6-82.3,124.7c-36.9,36.9-86.7,68.2-150.9,71c-64.2,2.8-114.6-8.1-153.3-30.3
		c-16.9-9.7-37.9-27.4-54.5-42.6c-14.7-13.3-25.8-24.6-27.8-26.4C329.4,305,307,237,308.9,236.6c9.9,3.8,49.2,7.1,51.2,1.8
		c1-3.2-22-6.3-27.6-6.9c16.9,1.2,50.8-21.8,53.7-26.8c10.7-19.4,40.3-75.7,84.7-105.5c59.7-40.5,138.2-41,198.3-1
		c31.3,20.8,75.7,72.2,86.1,109.5c1.8,6.5,37.3,21.2,61.7,18.8c0,0-38.5,6.7-36.1,12.5C783.1,244.3,824.3,242.5,831.4,240.1z"/>
	<path fill="#42210B" d="M779.9,311.9c2,8.3-1,14.1-5.2,21.4c-7.3,12.9-14.5,21.2-25.2,32.1c-40.3,41-121.4,59.5-192.9,59.5
		c-76.3,0-119.8-27-165.8-61.3c-9.7-7.3-21.8-44-12.3-72.2c11.7-35.1,40.1-24.2,73-80.7c2.8-4.6,14.1-22,34.7-28.6
		c20.4-6.7,29.3-3.4,38.3-13.5c4.4-5,15.1-59.7,50-59.7c33.7,0,33.7,56.9,54.1,66.6c15.5,7.5,34.7,3.4,51.8,13.7
		c22,13.1,23,40.8,30.7,54.5c12.7,23,23.4,29.1,42.4,40.5C765.4,291.3,776.1,296.5,779.9,311.9z"/>
	<path fill="#FFFFFF" d="M749.4,365.3c-36.9,36.9-86.7,68.2-150.9,71c-64.2,2.8-114.6-8.1-153.3-30.3c-16.9-9.7-37.9-27.4-54.5-42.6
		c2-4,56.3-57.1,63.7-63.5c3.2-2.8,8.5-6.5,36.9-13.7c26.6-6.9,29.1-5.2,38.5-10.5c6.1-3.2,11.5-6.3,18-19.4
		c5.4-10.7,6.3-24.2,6.1-30.3c-0.6-15.9-6.5-17.3-6.1-31.1c0.2-5.9-3.2-71.8,28.6-71.8c15.3,0,21.4,53.9,20,66.8
		c-1.2,9.5-0.2,20.2,1.6,41.8c1.6,17.3,2.6,20.8,3.6,23c3.2,8.1,8.3,15.3,14.9,21c4,3.4,8.5,5.4,17.1,9.7
		c11.5,5.4,16.1,6.9,22.4,9.7c15.1,6.9,16.5,11.9,34.3,23c18,11.5,18.4,7.5,29.9,15.7C731.3,341.7,743.6,353.4,749.4,365.3z"/>
	<path opacity="0.55" fill="#684147" enable-background="new    " d="M556,328c-4-0.2-8.1-1.2-11.7-3.2l0.8-1.8
		c6.9,3.6,12.5,4,17.1,1.6c9.7-5.2,11.5-22,11.5-22.2l1.8,0.2c0,0.8-1.8,18-12.5,23.8C561,327.4,558.6,328,556,328z"/>
	<path opacity="0.55" fill="#684147" enable-background="new    " d="M593.5,328c-2.6,0-5-0.6-7.3-1.8c-10.7-5.6-12.5-23-12.5-23.8
		l1.8-0.2c0,0.2,1.8,16.9,11.5,22.2c4.6,2.4,10.5,2,17.1-1.6l0.8,1.8C601.8,326.8,597.7,327.8,593.5,328z"/>
	<path fill="#F9C7DC" d="M574.7,304.6c-3.4,0-11.3-16.3-11.3-16.3c1.8-6.1,19-5,22,0.2C585.6,288.3,578.6,304.6,574.7,304.6z"/>
	<path fill="#CCCCCC" d="M611.5,301.6c18.4,3.2,36.3,8.1,53.9,14.3c17.6,6.1,34.5,14.1,50.2,24c7.9,4.8,15.3,10.5,22.4,16.5
		c7.1,6.1,13.3,12.9,18.8,20.4c11.3,14.9,18,32.9,19.4,51.4c-1-9.3-3-18.4-6.3-27c-3.4-8.7-8.1-16.7-13.5-24.2
		c-5.4-7.5-11.9-14.1-19-20.2c-7.1-6.1-14.5-11.5-22.4-16.3c-15.9-9.7-32.7-17.3-50.2-23.4c-17.6-6.1-35.3-10.7-53.7-13.9
		L611.5,301.6z"/>
	<path fill="#CCCCCC" d="M612.5,304.6c17.8,5.4,35.1,12.3,51.8,20.6c16.7,8.1,32.5,18.2,47.2,29.7c7.3,5.9,13.9,12.1,20.2,19.2
		c6.3,6.9,11.7,14.3,16.3,22.4c9.5,16.1,14.1,34.7,13.3,53.3c0.2-9.3-1-18.6-3.2-27.4c-2.4-8.9-6.1-17.6-10.7-25.6
		c-4.6-8.1-10.1-15.3-16.5-22.2c-6.3-6.9-13.1-13.1-20.4-18.8c-14.5-11.3-30.5-21.2-47-29.1c-16.5-8.1-33.9-14.7-51.6-20
		L612.5,304.6z"/>
	<path fill="#CCCCCC" d="M538.4,303.4c-18.2,3-36.1,7.7-53.7,13.9c-17.6,6.1-34.3,13.9-50.2,23.4c-7.9,4.8-15.3,10.3-22.4,16.3
		c-7.1,6.1-13.3,12.7-19,20.2c-11.3,14.7-18.2,32.5-19.8,51c1.4-18.6,8.3-36.5,19.6-51.4c5.4-7.5,11.9-14.3,18.8-20.4
		c7.1-6.3,14.5-11.7,22.4-16.5c15.7-9.7,32.7-17.8,50.2-24c17.6-6.3,35.5-11.1,53.9-14.3L538.4,303.4z"/>
	<path fill="#CCCCCC" d="M537.6,306.6c-17.8,5.2-35.1,11.9-51.6,20c-16.7,7.9-32.5,17.8-47.2,29.1c-7.3,5.6-14.1,11.9-20.4,18.8
		c-6.3,6.9-11.9,14.1-16.5,22.2c-9.5,16.1-14.3,34.5-13.7,53.1c-0.6-18.8,4-37.1,13.5-53.3c4.6-8.1,10.1-15.5,16.3-22.4
		c6.3-6.9,12.9-13.3,20.2-19.2c14.5-11.5,30.5-21.4,47.2-29.7c16.7-8.3,33.9-15.1,51.8-20.6L537.6,306.6z"/>
	<path fill="#42210B" d="M391.2,361.5c7.7,7.7,15.7,14.7,24,21.6c8.3,6.9,16.9,13.3,25.8,19.2c4.4,3,9.1,5.9,13.7,8.5
		c4.6,2.6,9.5,5,14.3,7.3c9.7,4.6,20.2,7.5,30.9,8.9c-10.7-1.2-21.2-4-31.1-8.5c-5-2-9.9-4.4-14.5-7.1c-4.6-2.6-9.5-5.2-13.9-8.3
		c-9.1-5.9-17.8-12.1-26.2-19c-8.5-6.7-16.5-13.7-24.4-21.4L391.2,361.5z"/>
	<path fill="#42210B" d="M751.7,363.3c-7.7,7.7-15.7,14.7-24.2,21.6c-8.3,6.9-17.1,13.3-26,19.2c-4.4,3-9.1,5.9-13.9,8.5
		c-4.6,2.6-9.5,5-14.5,7.3c-9.9,4.4-20.4,7.5-31.1,8.5c10.7-1.2,21.2-4.2,30.9-8.9c4.8-2.2,9.7-4.6,14.3-7.5
		c4.6-2.6,9.3-5.6,13.7-8.5c8.9-6.1,17.6-12.5,25.8-19.6c8.3-6.9,16.1-14.3,23.8-22L751.7,363.3z"/>
	<circle fill="#65C8D0" cx="502.7" cy="234.2" r="44.6"/>
	<circle fill="#65C8D0" cx="646.6" cy="234.2" r="44.6"/>
	<g id="Eye1">
		<circle cx="504.1" cy="229.4" r="37.5"/>
		
			<ellipse transform="matrix(0.297 -0.9549 0.9549 0.297 166.2926 635.7222)" fill="#FFFFFF" cx="514.9" cy="204.9" rx="7.9" ry="12.1"/>
	</g>
	<g id="Eye2">
		<circle cx="647.8" cy="229.4" r="37.5"/>
		
			<ellipse transform="matrix(0.297 -0.9549 0.9549 0.297 269.1367 772.6608)" fill="#FFFFFF" cx="659.3" cy="203.5" rx="7.3" ry="11.3"/>
	</g>
</g>
</svg>
