<svg id="Layer_1" data-name="Layer 1" xmlns="http://www.w3.org/2000/svg" viewBox="0 0 1145.26 724.95"><path id="Path_48" data-name="Path 48" d="M10.13,384.57a190.17,190.17,0,0,1-5.19-80C34.16,101.78,122.68,35.92,332.64,4.93c205.79-27.77,251.72,160.49,388.6,179.56s162.45-15.38,297.4,14.43C1117.19,220.69,1186,385,1099.83,557.61c-47.68,104-374,188.5-643.1,160.63-74.76-7.75-156.52-46.73-190.59-63.41C142.11,594.1,40.61,489.73,10.13,384.57Z" fill="#fee67f"/><g id="prins-svg"><path d="M663.31,630.71s26.62,85.74,185.79,88c0,0-26.42-4.85-29.65-20.18,0,0,70.81,55.08,117.21.41,0,0-37.53,11.09-47.61-4.24,0,0,92.8,32.68,137.38-133.35,0,0-12.71-.8-34.29,33.29,0,0-4.44-31.07,77.66-65.16,0,0-33.48-41.36-106.92-15.74,0,0,24.41-14.72,42-12.51,0,0-30.46-38.93-112.77,57.7,0,0,18.77-23.2,10.49-44.38,0,0-44.58,42.77-37.52,68s-34.29,55.68-40.55,58.71c0,0,17.15-10.29,17.35-25.22,0,0-93.6,60.73-148.07-16.54Z" fill="#42210b"/><path d="M886,723.91c-29.45,0-56.69-17.35-64.76-23,5.25,12.51,27.84,16.75,28,16.75l-.21,2C803.51,719.07,740,710.6,696,674.49c-26.43-21.59-33.49-43.38-33.49-43.58l-.2-.6L693.57,598l.6,1c22.39,31.67,53.66,44.18,93.4,36.71a163.29,163.29,0,0,0,53.26-20.57l1.62-1V616a24.78,24.78,0,0,1-5.85,15.13c13.71-11.5,31.87-31.27,27.23-48.41-7.06-25.42,35.91-67.18,37.73-69l1-1,.61,1.42c5,12.71.6,26-4,34.9,41.56-46.4,69.2-56.69,85.34-56.69h.81c13.71.2,19.77,7.87,20,8.07l1.41,1.81-2.42-.4c-10.09-1.41-23,3.23-31.47,7.26,32.88-9.08,56.69-4.44,71.21,1.62,17.55,7.06,26,17.35,26.23,17.75l.8,1-1.21.4c-42,17.35-60.72,33.89-69,44.79a39.4,39.4,0,0,0-7.87,15.93c20.58-30.86,32.68-30.66,33.29-30.46h1.21l-.2,1.21c-17.55,65.36-44.59,107.93-80.09,126.69A81.71,81.71,0,0,1,906,697.89a56.9,56.9,0,0,1-14.32-1.82c11.9,10.9,44.18,1.62,44.38,1.41l3-1-2,2.42C921.73,717.66,903.57,723.91,886,723.91Zm-68.18-27.84,2,1.62c.61.6,68.59,52.25,113.78,2.82-9.28,2.22-36.71,7.87-45.59-5.45l-1.61-2.42,2.82,1c.2,0,26.43,9.08,57.29-7.26,34.7-18.36,61.33-60.12,78.68-124.07-3.63.81-15.13,5.85-32.28,32.48L991.53,597l-.4-2.62c-.21-1.21-3.63-31.88,77.06-65.57a72.38,72.38,0,0,0-24.81-16.14c-15.94-6.45-42.57-11.29-80.29,1.82l-8.68,3,7.87-4.85c1-.6,22.59-13.51,39.74-12.71a27.9,27.9,0,0,0-16.74-5.64h-.61c-16.74,0-46.2,11.49-92,65.16l-1.41-1.21c.2-.21,17.55-22,10.89-42.17-6.66,6.66-42.36,43.78-36.31,66,7.06,25.42-33.89,56.49-41.16,59.92l-1-1.62c.2,0,15.33-9.48,16.74-22.59a173,173,0,0,1-52.25,20c-27.64,5-66.37,2.82-94.61-36.72l-29.26,29.86c1.21,3.43,9.08,22.8,32.89,42.16,41.15,33.49,99.25,42.77,143.63,44.39-8.27-2.83-20.17-8.48-22.39-19Z" fill="#42210b"/><polygon points="470.44 418.59 667.54 421.82 711.72 517.64 709.1 532.17 731.89 547.7 749.45 565.46 767.8 602.17 763.37 632.84 756.91 653.41 735.12 674.39 693.77 692.35 633.04 703.44 574.74 700.22 515.03 701.23 489.41 704.86 471.86 698.4 436.75 686.9 414.56 682.06 391.97 667.53 373.41 629.81 364.74 612.66 373.41 580.59 395.2 553.15 413.56 543.87 423.24 532.17 421.63 524.3 418.6 486.38 470.44 418.59" fill="#fff"/><path d="M406.9,542.66s98.85,176.12-3.43,118.82l11.09,20.38c1.82,4,13.12,7.46,15.13,7.87L476.9,697l8.88-9.08,9.08-4L438.37,573.12,421.63,530Z" fill="#e6e6e6"/><path d="M728.67,542.66S629.82,717,732.1,660.27L721,680.45c-1.81,4-12.91,7.46-14.93,7.66l-47.2,7.06L650,686.09l-9.08-3.83L697.4,572.52,714.34,530Z" fill="#e6e6e6"/><polygon points="445.23 695.17 434.74 696.99 429.09 702.43 429.9 709.09 440.59 711.51 453.7 711.92 465.4 711.92 477.51 711.92 484.37 711.92 479.52 703.44 476.7 699.61 470.24 697.79 445.23 695.17" fill="#e6e6e6"/><polygon points="647.97 712.72 652.82 703.44 653.82 700.22 663.91 696.99 681.06 694.97 690.74 696.99 697.4 696.99 702.24 700.22 702.24 709.09 694.57 711.92 647.97 712.72" fill="#e6e6e6"/><path d="M651.2,695.37s-17.15,9.69-46.8,3.64c-8.88-1.82-13.32-9.69-15.54-18.36-7.66-30.46,5.85-108.13,22.6-132.14,0,0-30.26,45.59-29.05,51.64s-5,23.2-5,23.2-7.67,16.95-6.26,23-4.44,31.07-4,33.89-.2,18.77,0,22.19,1.81,10.29,5.24,9.49,33.89,8.07,40.95,4.64,19,2.62,27.44-4.64,11.3-9.49,11.3-9.49Z" fill="#e6e6e6"/><path d="M481.14,695.37s17.14,9.69,46.8,3.64c8.88-1.82,13.31-9.69,15.53-18.36,7.67-30.46-5.85-108.13-22.59-131.94,0,0,30.26,45.59,29,51.65s5,22.79,5,22.79,7.67,17,6.26,23,4.43,31.07,4,33.89.2,18.76,0,22.19-1.81,10.29-5.24,9.48-33.9,8.07-41,4.64-19,2.63-27.43-4.64-11.3-9.48-11.3-9.48Z" fill="#e6e6e6"/><path d="M521.89,549.72s37.32,25.22,44.38,54.47v50.64l-10.49-47.21a77.21,77.21,0,0,0-12.71-28.45Z" fill="#e6e6e6"/><path d="M610.85,549.72s-37.32,25.22-44.38,54.47v50.64L577,607.62a77.21,77.21,0,0,1,12.71-28.45Z" fill="#e6e6e6"/><path d="M399.43,548.51s-27,72.63,19.77,138.39c0,0-52.25-11.3-54.67-69.19C364.74,617.71,361.91,578.37,399.43,548.51Z" fill="#c6a27d"/><path d="M731.29,548.51s27,72.63-19.77,138.39c0,0,52.25-11.3,54.67-69.19C766,617.71,768.61,578.37,731.29,548.51Z" fill="#c6a27d"/><path d="M421.42,530.15s27.64-5.24,60.73-120.84l-25.22-5.24C457.13,404.07,405.08,444.41,421.42,530.15Z" fill="#c6a27d"/><path d="M711.92,531.16s-27.63-5.24-60.72-120.64l25.22-5.24C676.22,405.28,728.26,445.42,711.92,531.16Z" fill="#c6a27d"/><path d="M678.23,406.08A128.53,128.53,0,0,1,700,437.15a170.16,170.16,0,0,1,7.67,17.55A119,119,0,0,1,715,492.23a153.21,153.21,0,0,1-.4,19.16,158.21,158.21,0,0,1-8.28,37.32c-1,3-2.21,6-3.42,8.88s-2.43,5.85-3.64,8.67c-2.42,5.85-5,11.5-7.66,17.35-5.25,11.5-10.69,23-16.34,34.3-11.1,22.59-23,45.19-35.91,66.77l-1.21-3a44.56,44.56,0,0,1,7.26,2.82,30.26,30.26,0,0,1,6.66,4.64,11.7,11.7,0,0,1,3.83,7.67,14.79,14.79,0,0,1-2,8.27,25.35,25.35,0,0,1-12.71,9.68A54.58,54.58,0,0,1,626.19,718a136.55,136.55,0,0,1-30.06-1.41c-5-.61-9.89-1.62-14.73-2.63s-9.68-2.22-14.52-3.43l-1.42-.4v-1.61a338,338,0,0,1,1.62-45.19,307.51,307.51,0,0,1,7.66-44.59,110.59,110.59,0,0,1,3-10.89l1.81-5.45,2-5.24a158,158,0,0,1,9.48-20.58,167.07,167.07,0,0,1,12.11-19,117.48,117.48,0,0,1,15.33-16.34A127.41,127.41,0,0,0,604.2,558.4a153.89,153.89,0,0,0-11.1,19.36A184.24,184.24,0,0,0,585,598.54l-1.61,5.25L581.8,609c-.6,1.82-1,3.63-1.61,5.25a41.57,41.57,0,0,0-1.41,5.44,295.8,295.8,0,0,0-7.47,44,329.57,329.57,0,0,0-1.61,44.59l-1.61-1.82c4.84,1,9.48,2.42,14.32,3.23s9.68,2,14.52,2.62A127.6,127.6,0,0,0,626,713.73a53.42,53.42,0,0,0,13.92-3,20.85,20.85,0,0,0,10.7-7.87A10.17,10.17,0,0,0,652,697a8.75,8.75,0,0,0-2.62-5.25,30.67,30.67,0,0,0-12.11-6.45l-2.62-.81,1.41-2.22c12.91-21.58,24.61-44,35.71-66.57,5.65-11.3,10.89-22.8,16.14-34.1,2.62-5.64,5.24-11.49,7.66-17.14,1.21-2.83,2.42-5.85,3.63-8.68s2.22-5.85,3.23-8.67a149.56,149.56,0,0,0,7.87-36.31,127.65,127.65,0,0,0-1.82-37.12A141.83,141.83,0,0,0,678.23,406.08Z" fill="#42210b"/><path d="M660.08,716.56h-22.6v-4H649c20.58.2,51.65.41,52.45-8.67a3.18,3.18,0,0,0-.8-2.63c-1.42-1.41-5.65-4-19.17-4a247.34,247.34,0,0,1-27.23,2.22l-.41-4a203.67,203.67,0,0,1,27-2.21h.2a134.59,134.59,0,0,0,42-12.51c25.22-14.12,32.08-27.84,32.08-27.84l.2-.2a71.25,71.25,0,0,0,4.64-66.17C746,554,708.7,534.39,708.29,534.19l1.82-3.63c1.61.8,38.93,20.37,53.46,54.26a75.13,75.13,0,0,1-4.84,69.8c-.81,1.62-8.27,15.13-33.9,29.66a126.08,126.08,0,0,1-29.25,10.29,16.26,16.26,0,0,1,7.87,4,7.58,7.58,0,0,1,2,5.65C704.46,715.14,683.28,716.56,660.08,716.56Z" fill="#42210b"/><path d="M454.1,406.08a142.36,142.36,0,0,0-30.46,67.79A134.91,134.91,0,0,0,422,511a160,160,0,0,0,8.07,36.31c1,3,2.22,5.85,3.23,8.67s2.42,5.85,3.63,8.68c2.42,5.85,5,11.5,7.66,17.15,5.25,11.5,10.7,22.79,16.14,34.09,11.1,22.59,22.8,45,35.71,66.57l1.41,2.22-2.62.81a30.67,30.67,0,0,0-12.11,6.45,8.75,8.75,0,0,0-2.62,5.25,10.17,10.17,0,0,0,1.41,5.85,21.09,21.09,0,0,0,10.7,7.87,55.35,55.35,0,0,0,13.92,3,126.49,126.49,0,0,0,29.05-1.41c4.84-.6,9.68-1.61,14.52-2.62s9.68-2.22,14.32-3.23l-1.61,1.82a337.84,337.84,0,0,0-9.08-88.57c-.4-1.81-1-3.63-1.41-5.44a40.26,40.26,0,0,0-1.61-5.25L549.12,604l-1.61-5.25A200.34,200.34,0,0,0,539.44,578a184.27,184.27,0,0,0-10.89-19.36,128.23,128.23,0,0,0-14.33-17.15,129.88,129.88,0,0,1,15.33,16.34,168,168,0,0,1,12.11,19,189.68,189.68,0,0,1,9.48,20.58l2,5.25L555,608l3,10.9a302.55,302.55,0,0,1,7.66,44.58,336.82,336.82,0,0,1,1.62,45.19v1.61l-1.41.41c-4.85,1-9.69,2.42-14.53,3.43s-9.68,2-14.73,2.62a135.88,135.88,0,0,1-30.05,1.41,56,56,0,0,1-15.13-3.23,25.27,25.27,0,0,1-12.92-9.48,13.38,13.38,0,0,1-2-8.27,12.42,12.42,0,0,1,4-7.67,30.6,30.6,0,0,1,6.66-4.64,35.65,35.65,0,0,1,7.26-2.82l-1.21,3c-12.91-21.79-24.81-44.18-35.91-66.78-5.65-11.3-10.89-22.8-16.14-34.29-2.62-5.85-5.24-11.5-7.66-17.35-1.21-2.83-2.42-5.85-3.63-8.68s-2.42-5.85-3.43-8.87a158.38,158.38,0,0,1-8.27-37.33,121.43,121.43,0,0,1-.41-19.16A123.92,123.92,0,0,1,420,473.46a112.52,112.52,0,0,1,5.25-18.35,135.79,135.79,0,0,1,7.66-17.55A115.2,115.2,0,0,1,454.1,406.08Z" fill="#42210b"/><path d="M472.26,716.56c-23.2,0-44.18-1.42-45.19-12.51a6.94,6.94,0,0,1,2.42-6,17.09,17.09,0,0,1,7.27-3.43c-35.31-8.07-53.46-25-62.74-39.54a75.17,75.17,0,0,1-5.25-70.41c14.53-33.69,52.05-53.46,53.46-54.27l1.82,3.64c-.41.2-37.73,19.77-51.65,52.24a71.13,71.13,0,0,0,4.84,66.38c10.09,15.53,30.87,33.89,73.84,40.34a177.75,177.75,0,0,1,27.43,2.22l-.4,4A206.39,206.39,0,0,1,450.88,697c-8.27,0-15.74,1-18.76,3.83a4,4,0,0,0-1.22,2.83c.61,9.28,31.88,8.87,52.25,8.67h11.5v4h-11.5Z" fill="#42210b"/><path d="M517.85,695.37,516,696.79A22.43,22.43,0,0,0,508,710.71l-.41,2.62h6.66l-.6-4.44a12.64,12.64,0,0,1,1.21-7.67C516.24,698.4,517.85,695.37,517.85,695.37Z" fill="#42210b"/><path d="M498.08,693.36l-1.81,1.41a22.43,22.43,0,0,0-8.07,13.92l-.41,2.62h6.66l-.6-4.44a12.59,12.59,0,0,1,1.21-7.66C496.47,696.58,498.08,693.36,498.08,693.36Z" fill="#42210b"/><path d="M613.27,695.37l1.82,1.42a22.43,22.43,0,0,1,8.07,13.92l.4,2.62H616.7l.61-4.44a12.71,12.71,0,0,0-1.21-7.67C614.89,698.4,613.27,695.37,613.27,695.37Z" fill="#42210b"/><path d="M633,693.36l1.82,1.41a22.43,22.43,0,0,1,8.07,13.92l.4,2.62h-6.86l.61-4.44a12.67,12.67,0,0,0-1.21-7.66C634.66,696.58,633,693.36,633,693.36Z" fill="#42210b"/><path d="M677.83,699.81l1.61,1a13.87,13.87,0,0,1,6.66,9.08l.4,1.61h-5.64l.4-3a7.67,7.67,0,0,0-1-5C679,701.83,677.83,699.81,677.83,699.81Z" fill="#42210b"/><path d="M690.74,699.81l1.41.81a11.48,11.48,0,0,1,6.06,7.26l.4,1.21h-5l.4-2.22a5.66,5.66,0,0,0-.81-4C692,701.43,690.74,699.81,690.74,699.81Z" fill="#42210b"/><path d="M453.7,700.22l-1.61,1a13.87,13.87,0,0,0-6.66,9.08l-.4,1.62h5.65l-.41-3a7.64,7.64,0,0,1,1-5C452.49,702.23,453.7,700.22,453.7,700.22Z" fill="#42210b"/><path d="M440.59,700.22l-1.41.8a11.52,11.52,0,0,0-6.06,7.27l-.4,1.21H438l-.41-2.43a5,5,0,0,1,.81-3.83C439.38,701.83,440.59,700.22,440.59,700.22Z" fill="#42210b"/><path d="M663.31,94.4s76.45-64.76,142.22-48.82c0,0,25.82,159.17-28.24,174.71l-35.91,9.88-70.41-97Z" fill="#42210b"/><path d="M722.41,163s0-88.56,73.64-110.75c0,0,34.49,104.3-36.72,166Z" fill="#c6a27d"/><path d="M727.26,128.7a80.49,80.49,0,0,1,24.2-17.15,57.06,57.06,0,0,1,14.13-4.24,40.52,40.52,0,0,1,14.72,1,43.79,43.79,0,0,0-14.52-.6,56.55,56.55,0,0,0-13.92,4.64,71.11,71.11,0,0,0-12.31,7.86,83.54,83.54,0,0,0-10.69,9.89Z" fill="#42210b"/><path d="M721.61,161.78a113.9,113.9,0,0,1,14.93-11.09,98.22,98.22,0,0,1,16.74-8.07A68.81,68.81,0,0,1,771.44,139a50.3,50.3,0,0,1,18.15,2,50.07,50.07,0,0,0-18.15-1.61,66.82,66.82,0,0,0-17.76,4.24,93,93,0,0,0-16.14,8.27A98.74,98.74,0,0,0,723,163Z" fill="#42210b"/><path d="M476.5,96.82S400,32.07,334.27,48c0,0-25.82,159.17,28.25,174.71l35.91,9.88,70.4-97Z" fill="#42210b"/><path d="M417.39,165.41s0-88.56-73.64-110.75c0,0-34.49,104.3,36.72,166Z" fill="#c6a27d"/><path d="M411.13,132.33a82.23,82.23,0,0,0-10.69-9.89,79.26,79.26,0,0,0-12.3-7.86,56.14,56.14,0,0,0-13.92-4.64,35.16,35.16,0,0,0-14.53.6,40.28,40.28,0,0,1,14.73-1,57.11,57.11,0,0,1,14.12,4.24,72.68,72.68,0,0,1,12.71,7.46,73.65,73.65,0,0,1,11.3,9.69Z" fill="#42210b"/><path d="M417,165.41a98.07,98.07,0,0,0-30.47-19.36,67.23,67.23,0,0,0-17.75-4.24,50.12,50.12,0,0,0-18.16,1.61,50.35,50.35,0,0,1,18.16-2,62,62,0,0,1,18,3.83,85.3,85.3,0,0,1,16.75,8.07A114,114,0,0,1,418.4,164.2Z" fill="#42210b"/><path d="M831.35,240.06s-26,68.59-82.31,124.67c-36.91,36.92-86.74,68.19-150.9,71s-114.58-8.07-153.32-30.26c-16.94-9.68-37.92-27.44-54.46-42.57-14.73-13.31-25.83-24.61-27.84-26.42C329.43,305,307,237,308.85,236.63c9.89,3.83,49.23,7.06,51.25,1.81,1-3.23-22-6.25-27.64-6.86,16.94,1.21,50.84-21.78,53.66-26.83,10.69-19.37,40.35-75.65,84.73-105.51a178,178,0,0,1,198.31-1c31.26,20.78,75.65,72.23,86.14,109.55,1.81,6.45,37.32,21.18,61.73,18.76,0,0-38.53,6.66-36.11,12.51C783.14,244.29,824.29,242.48,831.35,240.06Z" fill="#c6a27d"/><path d="M779.91,311.87c2,8.27-1,14.13-5.25,21.39-7.26,12.91-14.52,21.18-25.21,32.07-40.35,41-121.45,59.52-192.86,59.52-76.26,0-119.83-27-165.83-61.33-9.68-7.26-21.79-44-12.31-72.22,11.7-35.11,40.15-24.21,73-80.7,2.83-4.64,14.12-22,34.7-28.64,20.38-6.66,29.25-3.43,38.33-13.52,4.44-5,15.13-59.71,50-59.71,33.69,0,33.69,56.88,54.07,66.57,15.53,7.46,34.7,3.43,51.84,13.72,22,13.11,23,40.75,30.67,54.47,12.71,23,23.4,29.05,42.36,40.54C765.38,291.3,776.08,296.54,779.91,311.87Z" fill="#42210b"/><path d="M749.45,365.33c-36.92,36.92-86.75,68.19-150.9,71S484,428.28,445.23,406.08c-17-9.68-37.93-27.43-54.47-42.56,2-4,56.28-57.09,63.75-63.55,3.23-2.82,8.47-6.45,36.92-13.72,26.62-6.86,29.05-5.24,38.53-10.49,6-3.22,11.5-6.25,17.95-19.36,5.45-10.7,6.26-24.21,6.05-30.26-.6-15.94-6.45-17.35-6.05-31.07.2-5.85-3.23-71.82,28.65-71.82,15.33,0,21.38,53.86,20,66.77-1.21,9.49-.2,20.18,1.61,41.76,1.62,17.35,2.63,20.78,3.64,23a53.42,53.42,0,0,0,14.92,21c4,3.43,8.48,5.45,17.15,9.69,11.5,5.44,16.14,6.86,22.39,9.68,15.13,6.86,16.55,11.9,34.3,23,18,11.5,18.36,7.46,29.86,15.73C731.29,341.73,743.6,353.43,749.45,365.33Z" fill="#fff"/><path d="M556,328a26.74,26.74,0,0,1-11.7-3.23l.81-1.81c6.86,3.63,12.51,4,17.15,1.61,9.68-5.24,11.49-22,11.49-22.19l1.82.2c0,.81-1.82,18-12.51,23.81A15.82,15.82,0,0,1,556,328Z" fill="#684147" opacity="0.55" style="isolation:isolate"/><path d="M593.5,328a14.92,14.92,0,0,1-7.26-1.81c-10.69-5.65-12.51-23-12.51-23.81l1.82-.2c0,.2,1.82,16.95,11.5,22.19,4.64,2.42,10.49,2,17.15-1.61l.8,1.81A22,22,0,0,1,593.5,328Z" fill="#684147" opacity="0.55" style="isolation:isolate"/><path d="M574.74,304.61c-3.43,0-11.29-16.34-11.29-16.34,1.81-6,19-5,22,.2C585.64,288.27,578.58,304.61,574.74,304.61Z" fill="#f9c7dc"/><path d="M611.46,301.59a329.67,329.67,0,0,1,53.86,14.32,244.41,244.41,0,0,1,50.23,24A179,179,0,0,1,738,356.46a119.88,119.88,0,0,1,18.76,20.37,97.69,97.69,0,0,1,19.37,51.45,112.17,112.17,0,0,0-6.26-27A109.93,109.93,0,0,0,756.31,377a119.89,119.89,0,0,0-19-20.17A176.3,176.3,0,0,0,715,340.52a258.54,258.54,0,0,0-50.23-23.4,350.11,350.11,0,0,0-53.66-13.92Z" fill="#ccc"/><path d="M612.47,304.61a347,347,0,0,1,51.84,20.58,261.11,261.11,0,0,1,47.21,29.65A164.39,164.39,0,0,1,731.69,374,127,127,0,0,1,748,396.4a97,97,0,0,1,13.32,53.26,104.31,104.31,0,0,0-3.23-27.44,109.44,109.44,0,0,0-10.69-25.62,117.83,117.83,0,0,0-16.54-22.19,163.46,163.46,0,0,0-20.38-18.76,256.45,256.45,0,0,0-47-29,332.89,332.89,0,0,0-51.65-20Z" fill="#ccc"/><path d="M538.43,303.4a313.88,313.88,0,0,0-53.66,13.92,270.54,270.54,0,0,0-50.23,23.4,176.4,176.4,0,0,0-22.4,16.34,128.17,128.17,0,0,0-19,20.18,97.77,97.77,0,0,0-19.77,51A97.85,97.85,0,0,1,393,376.83a128.68,128.68,0,0,1,18.76-20.37,160.86,160.86,0,0,1,22.39-16.55,267.09,267.09,0,0,1,50.24-24,329.67,329.67,0,0,1,53.86-14.32Z" fill="#ccc"/><path d="M537.62,306.63a332.78,332.78,0,0,0-51.64,20,258.1,258.1,0,0,0-47.21,29,162.67,162.67,0,0,0-20.37,18.76,126.71,126.71,0,0,0-16.55,22.19,98.44,98.44,0,0,0-13.71,53.06,98.5,98.5,0,0,1,13.51-53.26A127.55,127.55,0,0,1,418,374a181.12,181.12,0,0,1,20.18-19.17,265.2,265.2,0,0,1,47.2-29.65,339.15,339.15,0,0,1,51.85-20.58Z" fill="#ccc"/><path d="M391.16,361.5c7.67,7.67,15.74,14.73,24,21.59A295.09,295.09,0,0,0,441,402.25c4.44,3,9.08,5.85,13.72,8.47s9.48,5,14.32,7.27a102.36,102.36,0,0,0,30.87,8.87,104.54,104.54,0,0,1-31.07-8.47,121.74,121.74,0,0,1-14.52-7.06c-4.64-2.62-9.49-5.25-13.92-8.27a299.21,299.21,0,0,1-26.23-19,304.2,304.2,0,0,1-24.41-21.39Z" fill="#42210b"/><path d="M751.67,363.32a310.62,310.62,0,0,1-24.21,21.58,296.69,296.69,0,0,1-26,19.17,158.13,158.13,0,0,1-13.92,8.47q-7,3.93-14.52,7.26a98.89,98.89,0,0,1-31.07,8.48,96.94,96.94,0,0,0,30.87-8.88,137.41,137.41,0,0,0,14.32-7.47c4.64-2.62,9.28-5.64,13.72-8.47a299.94,299.94,0,0,0,25.82-19.57c8.27-6.86,16.14-14.32,23.81-22Z" fill="#42210b"/><circle cx="502.72" cy="234.21" r="44.58" fill="#65c8d0"/><circle cx="646.56" cy="234.21" r="44.58" fill="#65c8d0"/><g id="Eye1"><circle cx="504.14" cy="229.36" r="37.52"/><ellipse cx="514.89" cy="204.93" rx="7.87" ry="12.1" transform="translate(166.29 635.72) rotate(-72.72)" fill="#fff"/></g><g id="Eye2"><circle cx="647.77" cy="229.36" r="37.52"/><ellipse cx="659.31" cy="203.55" rx="7.26" ry="11.3" transform="translate(269.14 772.66) rotate(-72.72)" fill="#fff"/></g></g></svg>