<?xml version="1.0" encoding="utf-8"?>
<!-- Generator: Adobe Illustrator 24.3.0, SVG Export Plug-In . SVG Version: 6.00 Build 0)  -->
<svg version="1.1" id="Layer_1" xmlns="http://www.w3.org/2000/svg" xmlns:xlink="http://www.w3.org/1999/xlink" x="0px" y="0px"
	 viewBox="0 0 434.7 239.9" style="enable-background:new 0 0 434.7 239.9;" xml:space="preserve">
<style type="text/css">
	.st0{display:none;}
	.st1{display:inline;}
	.st2{clip-path:url(#SVGID_2_);fill:none;stroke:#BC85FF;stroke-width:21.5;stroke-linecap:round;stroke-linejoin:round;}
	.st3{clip-path:url(#SVGID_4_);fill:none;stroke:#BC85FF;stroke-width:20;stroke-linecap:round;stroke-linejoin:round;}
	.st4{clip-path:url(#SVGID_6_);fill:none;stroke:#BC85FF;stroke-width:17;stroke-linecap:round;stroke-linejoin:round;}
	.st5{clip-path:url(#SVGID_8_);fill:none;stroke:#BC85FF;stroke-width:20;stroke-linecap:round;stroke-linejoin:round;}
	.st6{clip-path:url(#SVGID_10_);fill:none;stroke:#BC85FF;stroke-width:15;stroke-linecap:round;stroke-linejoin:round;}
	.st7{clip-path:url(#SVGID_12_);fill:none;stroke:#BC85FF;stroke-width:21;stroke-linecap:round;stroke-linejoin:round;}
	.st8{clip-path:url(#SVGID_14_);fill:none;stroke:#BC85FF;stroke-width:17;stroke-linecap:round;stroke-linejoin:round;}
	.st9{clip-path:url(#SVGID_16_);fill:none;stroke:#BC85FF;stroke-width:23;stroke-linecap:round;stroke-linejoin:round;}
	.st10{clip-path:url(#SVGID_18_);fill:none;stroke:#BC85FF;stroke-width:23;stroke-linecap:round;stroke-linejoin:round;}
	.st11{clip-path:url(#SVGID_20_);fill:none;stroke:#6FDCBF;stroke-width:21.5;stroke-linecap:round;stroke-linejoin:round;}
	.st12{clip-path:url(#SVGID_22_);fill:none;stroke:#6FDCBF;stroke-width:20;stroke-linecap:round;stroke-linejoin:round;}
	.st13{clip-path:url(#SVGID_24_);fill:none;stroke:#6FDCBF;stroke-width:17;stroke-linecap:round;stroke-linejoin:round;}
	.st14{clip-path:url(#SVGID_26_);fill:none;stroke:#6FDCBF;stroke-width:20;stroke-linecap:round;stroke-linejoin:round;}
	.st15{clip-path:url(#SVGID_28_);fill:none;stroke:#6FDCBF;stroke-width:15;stroke-linecap:round;stroke-linejoin:round;}
	.st16{clip-path:url(#SVGID_30_);fill:none;stroke:#6FDCBF;stroke-width:21;stroke-linecap:round;stroke-linejoin:round;}
	.st17{clip-path:url(#SVGID_32_);fill:none;stroke:#6FDCBF;stroke-width:17;stroke-linecap:round;stroke-linejoin:round;}
	.st18{clip-path:url(#SVGID_34_);fill:none;stroke:#6FDCBF;stroke-width:23;stroke-linecap:round;stroke-linejoin:round;}
	.st19{clip-path:url(#SVGID_36_);fill:none;stroke:#6FDCBF;stroke-width:23;stroke-linecap:round;stroke-linejoin:round;}
	.st20{fill:#6FDCBF;}
</style>
<g id="clips" class="st0">
</g>
<g id="strokes" class="st0">
	<g class="st1">
		<defs>
			<path id="SVGID_1_" d="M142.6,139.6c3.4,2.8,5.9,7.4,3.8,11.8s-8.4,7.7-10.2,5c-1.3-2.3-3.5-4-6.1-4.6
				c-4.2-1.1-11.1,0.9-15.8,8.5s-4.4,11.1-6.2,15.6s-3.1,10.9-13.2,20.2s-23.9,13.1-28.5,13.9c-3.7,0.7-7.5,1.1-11.3,1.1l-1,0.1
				c-0.6-0.1-1.2-0.1-1.9,0l-0.2-0.3h-0.3l-0.8,0.1c-0.1,0-0.2,0-0.2-0.1h-0.2c-8.5-1.1-14.6-5.6-18.3-13.6c-1.8-3.9-3.1-8-3.8-12.2
				c-0.6-4.1-0.8-8.3-0.6-12.5c0-0.4,0-0.7,0.1-1.1c0.1-0.5,0.1-1,0-1.4c0.5-3.9,1.1-7.7,1.9-11.4c0.8-3.8,2.2-7.5,4-11
				c1.1-2,2.3-3.9,3.6-5.8c1.3-1.9,2.9-3.5,4.6-5c4-3.7,9.1-5.8,14.6-6.2c5.2-0.3,10.4,1.3,15.7,4.8c3.2,2.3,5.6,5.6,6.7,9.4
				c0.3,1.4,0.6,2.8,0.8,4.1c0.2,1.5,0.3,2.9,0.4,4.4c0.1,1.2,0,2.5-0.4,3.6c-0.4,1.2-1,2.4-1.9,3.3c-1,1.5-2.7,2.3-4.5,2.1
				c-1.8-0.2-3.4-1.3-4.2-2.9c-0.6-1-1.2-2.1-1.6-3.2c-0.4-1.1-0.8-2.3-1.2-3.5c-1.2-3.2-4.7-4.7-7.9-3.5c-0.7,0.3-1.4,0.7-1.9,1.2
				c-1.2,1.2-2.3,2.7-3,4.3c-2.4,5.5-4,11.4-4.7,17.3c-0.7,6-0.5,12.1,0.6,18.1c0.3,2.3,1.4,4.3,3.2,5.8c1.9,1.4,4.1,2.2,6.4,2.4
				c5.1,0.5,10.3-1,14.3-4.2c5-3.5,9.1-8.2,11.8-13.6c2.5-5.4,2.5-7.3,4-13.5s3.4-11.8,6.5-16.1s9.6-14.4,18.4-16.8
				s14.2-1.2,19.8,0.6S139.2,136.7,142.6,139.6L142.6,139.6z"/>
		</defs>
		<clipPath id="SVGID_2_">
			<use xlink:href="#SVGID_1_"  style="overflow:visible;"/>
		</clipPath>
		<path class="st2" d="M73.9,153.4c0,0-0.5-9.8-10.6-12s-19.5,2.3-22,14.6s-7.2,29.8,0.7,39.4s20.8,12.4,36,4.2s21.7-31,24.5-40
			s11.2-22.8,35.5-13.2"/>
	</g>
	<g class="st1">
		<defs>
			<path id="SVGID_3_" d="M154.5,156.3c1.4-2.9,2.7-5.9,2.8-9.6s0.1-3.7-0.6-5.5c-0.9-2.5-3.2-4.3-5.9-4.4c-1.3-0.1-2.6,0.1-3.7,0.8
				c-1,0.6-3.3,4.1-3.7,4.9s-7.4,14.1-8.9,16.3s-7.3,9.9-11.3,14.5s-12.8,14.1-13.8,13.7s-2.8-2.9-0.8-12.7s-12.9-6.9-16.8,0.4
				s0.2,22,1.4,24.7s6.7,6.1,10.8,6.8s8.2-0.8,12.1-3.5c1.3-0.9,2.6-1.9,3.8-2.9c1.1-1,12.7-12.2,19.5-20.9S153.1,159.3,154.5,156.3
				L154.5,156.3z"/>
		</defs>
		<clipPath id="SVGID_4_">
			<use xlink:href="#SVGID_3_"  style="overflow:visible;"/>
		</clipPath>
		<path class="st3" d="M100,167.5c0,0-3.2,24.6,1.8,27.2s9.6,3.1,10.8,1.8s27.6-27.3,34.2-41.8s5.5-17.9,5.5-18.9"/>
	</g>
	<g class="st1">
		<defs>
			<path id="SVGID_5_" d="M161.1,195.5c-4.1-1.4-7.3,1.3-8.6,3.2c-0.7,1.2-1.6,2.2-2.7,3.1c-0.5,0.4-1.1,0.9-1.8,1.5
				c-0.1-0.9,0.2-7.5,0.4-9.4c0.2-1.9,0.5-3.7,0.9-5.6c1-4.9,2.1-9.8,3.1-14.7c1.1-4.9,2.2-9.8,3.3-14.7c0.4-2.1,0.7-4.1,1-6.2
				s0.5-4.1,0.7-6.1c0.3-1.9,0.1-3.8-0.6-5.5c-0.9-2.5-3.2-4.3-5.9-4.4c-1.3-0.1-2.6,0.1-3.7,0.8c-1,0.6-1.9,1.9-3.7,4.9
				s-7.2,28.7-8.4,34.8c-1.1,5.7-1.8,11.5-2.1,17.3c0,2.2,0,4.4,0.1,6.5c0.2,2.8,0.9,5.4,2.2,7.9c0.9,2.1,2.2,4,4,5.5
				c1.6,1.3,3.4,2.2,5.4,2.6c2,0.3,4,0.1,5.9-0.6c2.2-0.8,4.1-2.1,5.7-3.9c1.9-2.2,3.5-4.5,5-7C162.3,203.6,165.2,196.8,161.1,195.5
				L161.1,195.5z"/>
		</defs>
		<clipPath id="SVGID_6_">
			<use xlink:href="#SVGID_5_"  style="overflow:visible;"/>
		</clipPath>
		<path class="st4" d="M152,135.6c0,0-11.5,51.4-11.2,55.1s-2.5,20.4,3.2,20s17.4-11.4,18.6-15.9"/>
	</g>
	<g class="st1">
		<defs>
			<path id="SVGID_7_" d="M205.7,176.1c-0.2-0.4-5.4-8.4-11.6-11.9c-2.5-1.4-5-2.9-7.4-4.6c-2.3-1.5-4.8-3.2-7.2-5
				c-0.8-0.6-6.5-6.6-2.7-10.6s10.1-1.4,11.4-0.7c1.4,0.8,2.5,1.9,3.4,3.2c0.4,0.6,0.8,1.1,1.2,1.5c0.4,0.5,0.9,1,1.3,1.5
				c1.1,1.2,2.8,1.7,4.3,1.2c1.6-0.4,2.8-1.7,3.1-3.4c0.6-1.8,0.5-3.8-0.3-5.5c-1.1-2.6-2.6-4.9-4.5-6.9c-2.7-3-6.2-5.1-10.2-6
				c-3.9-1-8-0.6-11.7,0.9c-3.9,1.6-7.3,4.3-9.7,7.7c-2.5,3.5-3.7,6.1-3.7,11.2s1.3,10.6,4.9,14.6s10.4,8.3,15.4,13.7
				s7.8,8.4,10,17.7s-2.6,13-4.7,13.4c-2.3,0.3-4.5-0.8-5.5-2.9c-0.7-1-1.5-1.8-4.6-3c-2.8-0.9-5.8,0.6-6.7,3.4
				c-0.1,0.3-0.2,0.6-0.2,0.9c-0.3,2,0,4,0.9,5.8c1.9,3.6,4.8,6.5,8.3,8.4c3.5,1.9,7.6,2.6,11.5,2c3.7-0.3,7.3-1.7,10.2-4
				c2.9-2.3,5.2-5.3,6.7-8.6C212.7,198.8,212.1,187.4,205.7,176.1L205.7,176.1z"/>
		</defs>
		<clipPath id="SVGID_8_">
			<use xlink:href="#SVGID_7_"  style="overflow:visible;"/>
		</clipPath>
		<path class="st5" d="M199.5,150.3c0,0-3.4-12.3-10.3-13.6s-12.2-1.4-15.9,2.4s-8.7,13.8,0.6,22s21.4,13.7,24.6,22
			s4.6,20.8,2.7,24.2s-6.3,9-10.7,8.9s-11.7-2-14.9-5.9c-1.9-2.3-3.5-4.9-4.8-7.6"/>
	</g>
	<g class="st1">
		<defs>
			<path id="SVGID_9_" d="M174.1,217.1l8.4-10.3c-0.6-0.5-1.2-1.1-1.6-1.8c-0.8-1.1-1.3-2.3-1.7-3.5c-0.3-1.3-0.4-2.7-0.2-4
				c0.5-2.6,1.4-5,2.5-7.4c1.1-2.4,2.6-5.3,4.9-7.2s13.7-9.4,16.6-10.9s10-4.7,14.4-11.2s4.3-13,11.9-17.4s13.2,2.1,14.8,4
				s3.4,5.2,7.4,2.8s1.9-7.8,1-9.3c-1.7-3.7-4.5-6.9-7.9-9.1c-5.6-3.7-15.5-4.8-22.4,0.3s-9.4,12.9-12.4,17.9s-8.1,10.5-14,13.4
				s-11.3,7.6-14,9.6c-2.3,1.8-4.3,3.9-6,6.2c-1.5,2-2.8,4.2-4,6.5c-1.2,2.3-2.2,4.7-3,7.1c-2.5,6.3-1.9,13.5,1.5,19.3
				C171.4,213.9,172.6,215.6,174.1,217.1L174.1,217.1z"/>
		</defs>
		<clipPath id="SVGID_10_">
			<use xlink:href="#SVGID_9_"  style="overflow:visible;"/>
		</clipPath>
		<path class="st6" d="M178.1,212.2c0,0-4.9-6.5-4.6-11.9s5.6-16.5,8-19.3s15.6-11.1,19.4-14.1s13.1-9.6,14.4-13.8
			s7.5-14.6,10.3-15.6s12-4.9,16.5-0.7s9.6,12,9.6,13.2"/>
	</g>
	<g class="st1">
		<defs>
			<path id="SVGID_11_" d="M257.5,176.1c-0.2-0.4-5.4-8.4-11.6-11.9c-2.5-1.4-5-2.9-7.4-4.6c-2.3-1.5-4.8-3.2-7.2-5
				c-0.8-0.6-6.5-6.6-2.7-10.6s10.1-1.4,11.4-0.7c1.4,0.8,2.5,1.9,3.4,3.2c0.4,0.6,0.8,1.1,1.2,1.5c0.4,0.5,0.9,1,1.3,1.5
				c1.1,1.2,2.8,1.7,4.3,1.2c1.6-0.4,2.8-1.7,3.1-3.4c0.6-1.8,0.5-3.8-0.3-5.5c-1.1-2.6-2.6-4.9-4.5-6.9c-2.7-3-6.2-5.1-10.2-6
				c-3.9-1-8-0.6-11.7,0.9c-3.9,1.6-7.3,4.3-9.7,7.7c-2.5,3.5-3.7,6.1-3.7,11.2s1.3,10.6,4.9,14.6s10.4,8.3,15.4,13.7
				s7.8,8.4,10,17.7s-2.6,13-4.7,13.4c-2.3,0.3-4.5-0.8-5.5-2.9c-0.7-1-1.5-1.8-4.6-3c-2.8-0.9-5.8,0.6-6.7,3.4
				c-0.1,0.3-0.2,0.6-0.2,0.9c-0.3,2,0,4,0.9,5.8c1.9,3.6,4.8,6.5,8.3,8.4c3.5,1.9,7.6,2.6,11.5,2c3.7-0.3,7.3-1.7,10.2-4
				c2.9-2.3,5.2-5.3,6.7-8.6C264.5,198.8,263.9,187.4,257.5,176.1L257.5,176.1z"/>
		</defs>
		<clipPath id="SVGID_12_">
			<use xlink:href="#SVGID_11_"  style="overflow:visible;"/>
		</clipPath>
		<path class="st7" d="M249,144.6c0,0-4.2-6.3-8.1-8.1s-12.2-1.4-15.9,2.4s-8.7,13.8,0.6,22s21.4,13.7,24.6,22s4.6,20.8,2.7,24.2
			s-6.3,9-10.7,8.9s-11.7-2-14.9-5.9"/>
	</g>
	<g class="st1">
		<defs>
			<path id="SVGID_13_" d="M225.9,217.1l8.4-10.3c-0.6-0.5-1.2-1.1-1.6-1.8c-0.8-1.1-1.3-2.3-1.7-3.5c-0.3-1.3-0.4-2.7-0.2-4
				c0.6-2.6,1.4-5,2.5-7.4c1.1-2.4,2.6-5.3,4.9-7.2s8.3-8.7,17-10.5c7.1-1.5,14-3.7,20.6-6.6c6.4-2.7,13.5-8.5,14.8-13.3
				s-2.5-10.5-9.8-9.5c-7.4,2.3-5.1,9.9-10.9,15s-13.9,5.7-21.3,6.6s-12.3,6.5-15,8.5c-2.3,1.8-4.3,3.9-6,6.2c-1.5,2-2.8,4.2-4,6.5
				c-1.2,2.3-2.2,4.7-3,7.1c-2.5,6.3-1.9,13.5,1.5,19.3C223.3,213.9,224.5,215.6,225.9,217.1L225.9,217.1z"/>
		</defs>
		<clipPath id="SVGID_14_">
			<use xlink:href="#SVGID_13_"  style="overflow:visible;"/>
		</clipPath>
		<path class="st8" d="M229,212.8c-2.8-2.6-4.5-6.2-4.6-10c0-6.2,4.1-16.6,6.5-19.9s6.1-10.6,19-13.5s26.2-8.4,28.6-11.2
			s5.4-7.1,5.4-12.4"/>
	</g>
	<g class="st1">
		<defs>
			<path id="SVGID_15_" d="M327.1,184.7c-3.6-2-1.9-8.6,0.3-9.4s7.4-1.2,12.1-4.2s7.6-5.7,11.3-11.1s-0.9-10-4.8-10
				s-7.2,0.4-11.8,5.4s-5.4,8.2-8.3,15.5s-6.9,17.3-10.5,22.9c-2.6,4.2-5.7,8-9.2,11.5c-1.5,1.4-5.7,3.7-7.5,4.7
				c-6.6,3.6-13.7,2.1-18.5-3.4c-1.6-1.8-3-3.9-4-6.1c-1-2.1-1.8-4.3-2.4-6.6c-1.6-6.3-2.5-12.8-2.7-19.3
				c-0.2-6.6,0.3-13.2,1.5-19.8c0.1-1.1,0.4-2.1,0.7-3.2c0.3-1.1,0.8-2.2,1.4-3.2c2.1-4.5,5.3-6.6,9.6-6.2c1.9,0.2,3.6,1.1,5,2.4
				c1.6,1.6,2.6,3.6,3,5.7c0.7,2.5,1,5,1,7.6c-0.2,3.6-0.5,7.1-0.9,10.6c-0.4,3.5-0.7,7-0.9,10.6c-0.1,2-0.3,4-0.4,6
				c-0.2,2-0.4,3.9-0.6,5.8v1.8c0,0.6,0.1,1.1,0.3,1.7c0.2,0.8,0.6,1.6,1.1,2.3c0.6,0.8,1.8,0.8,3.4-0.2h0.2l0.2-0.2l0.3-0.3
				c0.2,0,0.3,0,0.3-0.1s0.1-0.1,0.2-0.1l0.8-0.8l1.2-1.2c2.7-3.1,4.5-6.8,5.2-10.8c1-5.4,0.4-9.5,4.7-21.7s16.9-22.9,24.4-25.5
				s19.5-2.4,26.1,4.6s8.1,14.6,6.5,19.5s-3.6,11.1-14.5,19.8S330.7,186.7,327.1,184.7L327.1,184.7z"/>
		</defs>
		<clipPath id="SVGID_16_">
			<use xlink:href="#SVGID_15_"  style="overflow:visible;"/>
		</clipPath>
		<path class="st9" d="M283.4,152.5c0,0-3.4,25.2-1.9,31.5s1.1,21,7.2,21.1s18.1-3.6,20.1-11.9c0-8.6,8-32,12.2-36.7
			s10.8-14.8,20.5-14.1s16.8,5.4,16.9,9.4s1.1,13.5-6.6,20.6s-13.1,9.7-16.5,9.1"/>
	</g>
	<g class="st1">
		<defs>
			<path id="SVGID_17_" d="M380.8,159.9c-1.2-0.6-2.6-0.6-3.9-0.2c-1.4,0.5-2.6,1.4-3.4,2.7c-0.7,1.2-1.3,2.4-1.9,3.4
				s-1.1,2.2-1.7,3.4l-2.9,5.9c-1,1.9-1.9,3.8-2.9,5.7c-1.5,2.5-3.2,4.8-5.1,7c-1.9,2.1-4.1,4-6.5,5.6c-2.1,1.5-4.5,2.6-7,3.4
				c-2.5,0.7-5.2,0.9-7.8,0.7c-1.4-0.1-2.7-0.4-3.9-0.9c-1.2-0.5-2.3-1.3-3.1-2.3c-1.1-1.1-1.9-2.4-2.5-3.8
				c-0.6-1.5-2.2-3.3-1.1-13.3c0-12.7,4.8-18.6,1.8-21c-11.3-2.1-15.7,10.6-19.9,20.3s1,21.6,2,22.9c1.6,2.1,3.3,4.1,5.3,5.8
				c4,3.2,8.8,5.3,13.9,6c5.4,1,10.9,0.8,16.2-0.6c5.2-1.5,10.1-4,14.2-7.5c5.5-4.3,10.2-9.6,13.9-15.5c3.7-6,6.7-12.3,9.1-18.9
				c0.1-0.3,0.2-0.6,0.2-0.8c0-0.4,0.1-0.8,0.3-1.2C384.7,163.8,383.6,161.4,380.8,159.9L380.8,159.9z"/>
		</defs>
		<clipPath id="SVGID_18_">
			<use xlink:href="#SVGID_17_"  style="overflow:visible;"/>
		</clipPath>
		<path class="st10" d="M321.5,157c0,0-5.1,27.3-3.4,32.4s6.9,16.6,17.5,15.9s23.9-4.9,29.8-15.4s11.6-19.6,12.2-22.6"/>
	</g>
</g>
<g id="strokes2">
	<g>
		<defs>
			<path id="SVGID_19_" d="M142.6,139.6c3.4,2.8,5.9,7.4,3.8,11.8s-8.4,7.7-10.2,5c-1.3-2.3-3.5-4-6.1-4.6
				c-4.2-1.1-11.1,0.9-15.8,8.5s-4.4,11.1-6.2,15.6s-3.1,10.9-13.2,20.2s-23.9,13.1-28.5,13.9c-3.7,0.7-7.5,1.1-11.3,1.1l-1,0.1
				c-0.6-0.1-1.2-0.1-1.9,0l-0.2-0.3h-0.3l-0.8,0.1c-0.1,0-0.2,0-0.2-0.1h-0.2c-8.5-1.1-14.6-5.6-18.3-13.6c-1.8-3.9-3.1-8-3.8-12.2
				c-0.6-4.1-0.8-8.3-0.6-12.5c0-0.4,0-0.7,0.1-1.1c0.1-0.5,0.1-1,0-1.4c0.5-3.9,1.1-7.7,1.9-11.4c0.8-3.8,2.2-7.5,4-11
				c1.1-2,2.3-3.9,3.6-5.8c1.3-1.9,2.9-3.5,4.6-5c4-3.7,9.1-5.8,14.6-6.2c5.2-0.3,10.4,1.3,15.7,4.8c3.2,2.3,5.6,5.6,6.7,9.4
				c0.3,1.4,0.6,2.8,0.8,4.1c0.2,1.5,0.3,2.9,0.4,4.4c0.1,1.2,0,2.5-0.4,3.6c-0.4,1.2-1,2.4-1.9,3.3c-1,1.5-2.7,2.3-4.5,2.1
				c-1.8-0.2-3.4-1.3-4.2-2.9c-0.6-1-1.2-2.1-1.6-3.2c-0.4-1.1-0.8-2.3-1.2-3.5c-1.2-3.2-4.7-4.7-7.9-3.5c-0.7,0.3-1.4,0.7-1.9,1.2
				c-1.2,1.2-2.3,2.7-3,4.3c-2.4,5.5-4,11.4-4.7,17.3c-0.7,6-0.5,12.1,0.6,18.1c0.3,2.3,1.4,4.3,3.2,5.8c1.9,1.4,4.1,2.2,6.4,2.4
				c5.1,0.5,10.3-1,14.3-4.2c5-3.5,9.1-8.2,11.8-13.6c2.5-5.4,2.5-7.3,4-13.5s3.4-11.8,6.5-16.1s9.6-14.4,18.4-16.8
				s14.2-1.2,19.8,0.6S139.2,136.7,142.6,139.6L142.6,139.6z"/>
		</defs>
		<clipPath id="SVGID_20_">
			<use xlink:href="#SVGID_19_"  style="overflow:visible;"/>
		</clipPath>
		<path class="st11" d="M73.9,153.4c0,0-0.5-9.8-10.6-12s-19.5,2.3-22,14.6s-7.2,29.8,0.7,39.4s20.8,12.4,36,4.2s21.7-31,24.5-40
			s11.2-22.8,35.5-13.2"/>
	</g>
	<g>
		<defs>
			<path id="SVGID_21_" d="M154.5,156.3c1.4-2.9,2.7-5.9,2.8-9.6s0.1-3.7-0.6-5.5c-0.9-2.5-3.2-4.3-5.9-4.4
				c-1.3-0.1-2.6,0.1-3.7,0.8c-1,0.6-3.3,4.1-3.7,4.9s-7.4,14.1-8.9,16.3s-7.3,9.9-11.3,14.5s-12.8,14.1-13.8,13.7
				s-2.8-2.9-0.8-12.7s-12.9-6.9-16.8,0.4s0.2,22,1.4,24.7s6.7,6.1,10.8,6.8s8.2-0.8,12.1-3.5c1.3-0.9,2.6-1.9,3.8-2.9
				c1.1-1,12.7-12.2,19.5-20.9S153.1,159.3,154.5,156.3L154.5,156.3z"/>
		</defs>
		<clipPath id="SVGID_22_">
			<use xlink:href="#SVGID_21_"  style="overflow:visible;"/>
		</clipPath>
		<path class="st12" d="M100,167.5c0,0-3.2,24.6,1.8,27.2s9.6,3.1,10.8,1.8s27.6-27.3,34.2-41.8s5.5-17.9,5.5-18.9"/>
	</g>
	<g>
		<defs>
			<path id="SVGID_23_" d="M161.1,195.5c-4.1-1.4-7.3,1.3-8.6,3.2c-0.7,1.2-1.6,2.2-2.7,3.1c-0.5,0.4-1.1,0.9-1.8,1.5
				c-0.1-0.9,0.2-7.5,0.4-9.4c0.2-1.9,0.5-3.7,0.9-5.6c1-4.9,2.1-9.8,3.1-14.7c1.1-4.9,2.2-9.8,3.3-14.7c0.4-2.1,0.7-4.1,1-6.2
				s0.5-4.1,0.7-6.1c0.3-1.9,0.1-3.8-0.6-5.5c-0.9-2.5-3.2-4.3-5.9-4.4c-1.3-0.1-2.6,0.1-3.7,0.8c-1,0.6-1.9,1.9-3.7,4.9
				s-7.2,28.7-8.4,34.8c-1.1,5.7-1.8,11.5-2.1,17.3c0,2.2,0,4.4,0.1,6.5c0.2,2.8,0.9,5.4,2.2,7.9c0.9,2.1,2.2,4,4,5.5
				c1.6,1.3,3.4,2.2,5.4,2.6c2,0.3,4,0.1,5.9-0.6c2.2-0.8,4.1-2.1,5.7-3.9c1.9-2.2,3.5-4.5,5-7C162.3,203.6,165.2,196.8,161.1,195.5
				L161.1,195.5z"/>
		</defs>
		<clipPath id="SVGID_24_">
			<use xlink:href="#SVGID_23_"  style="overflow:visible;"/>
		</clipPath>
		<path class="st13" d="M152,135.6c0,0-11.5,51.4-11.2,55.1s-2.5,20.4,3.2,20s17.4-11.4,18.6-15.9"/>
	</g>
	<g>
		<defs>
			<path id="SVGID_25_" d="M205.7,176.1c-0.2-0.4-5.4-8.4-11.6-11.9c-2.5-1.4-5-2.9-7.4-4.6c-2.3-1.5-4.8-3.2-7.2-5
				c-0.8-0.6-6.5-6.6-2.7-10.6s10.1-1.4,11.4-0.7c1.4,0.8,2.5,1.9,3.4,3.2c0.4,0.6,0.8,1.1,1.2,1.5c0.4,0.5,0.9,1,1.3,1.5
				c1.1,1.2,2.8,1.7,4.3,1.2c1.6-0.4,2.8-1.7,3.1-3.4c0.6-1.8,0.5-3.8-0.3-5.5c-1.1-2.6-2.6-4.9-4.5-6.9c-2.7-3-6.2-5.1-10.2-6
				c-3.9-1-8-0.6-11.7,0.9c-3.9,1.6-7.3,4.3-9.7,7.7c-2.5,3.5-3.7,6.1-3.7,11.2s1.3,10.6,4.9,14.6s10.4,8.3,15.4,13.7
				s7.8,8.4,10,17.7s-2.6,13-4.7,13.4c-2.3,0.3-4.5-0.8-5.5-2.9c-0.7-1-1.5-1.8-4.6-3c-2.8-0.9-5.8,0.6-6.7,3.4
				c-0.1,0.3-0.2,0.6-0.2,0.9c-0.3,2,0,4,0.9,5.8c1.9,3.6,4.8,6.5,8.3,8.4c3.5,1.9,7.6,2.6,11.5,2c3.7-0.3,7.3-1.7,10.2-4
				c2.9-2.3,5.2-5.3,6.7-8.6C212.7,198.8,212.1,187.4,205.7,176.1L205.7,176.1z"/>
		</defs>
		<clipPath id="SVGID_26_">
			<use xlink:href="#SVGID_25_"  style="overflow:visible;"/>
		</clipPath>
		<path class="st14" d="M199.5,150.3c0,0-3.4-12.3-10.3-13.6s-12.2-1.4-15.9,2.4s-8.7,13.8,0.6,22s21.4,13.7,24.6,22
			s4.6,20.8,2.7,24.2s-6.3,9-10.7,8.9s-11.7-2-14.9-5.9c-1.9-2.3-3.5-4.9-4.8-7.6"/>
	</g>
	<g>
		<defs>
			<path id="SVGID_27_" d="M174.1,217.1l8.4-10.3c-0.6-0.5-1.2-1.1-1.6-1.8c-0.8-1.1-1.3-2.3-1.7-3.5c-0.3-1.3-0.4-2.7-0.2-4
				c0.5-2.6,1.4-5,2.5-7.4c1.1-2.4,2.6-5.3,4.9-7.2s13.7-9.4,16.6-10.9s10-4.7,14.4-11.2s4.3-13,11.9-17.4s13.2,2.1,14.8,4
				s3.4,5.2,7.4,2.8s1.9-7.8,1-9.3c-1.7-3.7-4.5-6.9-7.9-9.1c-5.6-3.7-15.5-4.8-22.4,0.3s-9.4,12.9-12.4,17.9s-8.1,10.5-14,13.4
				s-11.3,7.6-14,9.6c-2.3,1.8-4.3,3.9-6,6.2c-1.5,2-2.8,4.2-4,6.5c-1.2,2.3-2.2,4.7-3,7.1c-2.5,6.3-1.9,13.5,1.5,19.3
				C171.4,213.9,172.6,215.6,174.1,217.1L174.1,217.1z"/>
		</defs>
		<clipPath id="SVGID_28_">
			<use xlink:href="#SVGID_27_"  style="overflow:visible;"/>
		</clipPath>
		<path class="st15" d="M178.1,212.2c0,0-4.9-6.5-4.6-11.9s5.6-16.5,8-19.3s15.6-11.1,19.4-14.1s13.1-9.6,14.4-13.8
			s7.5-14.6,10.3-15.6s12-4.9,16.5-0.7s9.6,12,9.6,13.2"/>
	</g>
	<g>
		<defs>
			<path id="SVGID_29_" d="M257.5,176.1c-0.2-0.4-5.4-8.4-11.6-11.9c-2.5-1.4-5-2.9-7.4-4.6c-2.3-1.5-4.8-3.2-7.2-5
				c-0.8-0.6-6.5-6.6-2.7-10.6s10.1-1.4,11.4-0.7c1.4,0.8,2.5,1.9,3.4,3.2c0.4,0.6,0.8,1.1,1.2,1.5c0.4,0.5,0.9,1,1.3,1.5
				c1.1,1.2,2.8,1.7,4.3,1.2c1.6-0.4,2.8-1.7,3.1-3.4c0.6-1.8,0.5-3.8-0.3-5.5c-1.1-2.6-2.6-4.9-4.5-6.9c-2.7-3-6.2-5.1-10.2-6
				c-3.9-1-8-0.6-11.7,0.9c-3.9,1.6-7.3,4.3-9.7,7.7c-2.5,3.5-3.7,6.1-3.7,11.2s1.3,10.6,4.9,14.6s10.4,8.3,15.4,13.7
				s7.8,8.4,10,17.7s-2.6,13-4.7,13.4c-2.3,0.3-4.5-0.8-5.5-2.9c-0.7-1-1.5-1.8-4.6-3c-2.8-0.9-5.8,0.6-6.7,3.4
				c-0.1,0.3-0.2,0.6-0.2,0.9c-0.3,2,0,4,0.9,5.8c1.9,3.6,4.8,6.5,8.3,8.4c3.5,1.9,7.6,2.6,11.5,2c3.7-0.3,7.3-1.7,10.2-4
				c2.9-2.3,5.2-5.3,6.7-8.6C264.5,198.8,263.9,187.4,257.5,176.1L257.5,176.1z"/>
		</defs>
		<clipPath id="SVGID_30_">
			<use xlink:href="#SVGID_29_"  style="overflow:visible;"/>
		</clipPath>
		<path class="st16" d="M249,144.6c0,0-4.2-6.3-8.1-8.1s-12.2-1.4-15.9,2.4s-8.7,13.8,0.6,22s21.4,13.7,24.6,22s4.6,20.8,2.7,24.2
			s-6.3,9-10.7,8.9s-11.7-2-14.9-5.9"/>
	</g>
	<g>
		<defs>
			<path id="SVGID_31_" d="M225.9,217.1l8.4-10.3c-0.6-0.5-1.2-1.1-1.6-1.8c-0.8-1.1-1.3-2.3-1.7-3.5c-0.3-1.3-0.4-2.7-0.2-4
				c0.6-2.6,1.4-5,2.5-7.4c1.1-2.4,2.6-5.3,4.9-7.2s8.3-8.7,17-10.5c7.1-1.5,14-3.7,20.6-6.6c6.4-2.7,13.5-8.5,14.8-13.3
				s-2.5-10.5-9.8-9.5c-7.4,2.3-5.1,9.9-10.9,15s-13.9,5.7-21.3,6.6s-12.3,6.5-15,8.5c-2.3,1.8-4.3,3.9-6,6.2c-1.5,2-2.8,4.2-4,6.5
				c-1.2,2.3-2.2,4.7-3,7.1c-2.5,6.3-1.9,13.5,1.5,19.3C223.3,213.9,224.5,215.6,225.9,217.1L225.9,217.1z"/>
		</defs>
		<clipPath id="SVGID_32_">
			<use xlink:href="#SVGID_31_"  style="overflow:visible;"/>
		</clipPath>
		<path class="st17" d="M229,212.8c-2.8-2.6-4.5-6.2-4.6-10c0-6.2,4.1-16.6,6.5-19.9s6.1-10.6,19-13.5s26.2-8.4,28.6-11.2
			s5.4-7.1,5.4-12.4"/>
	</g>
	<g>
		<defs>
			<path id="SVGID_33_" d="M327.1,184.7c-3.6-2-1.9-8.6,0.3-9.4s7.4-1.2,12.1-4.2s7.6-5.7,11.3-11.1s-0.9-10-4.8-10
				s-7.2,0.4-11.8,5.4s-5.4,8.2-8.3,15.5s-6.9,17.3-10.5,22.9c-2.6,4.2-5.7,8-9.2,11.5c-1.5,1.4-5.7,3.7-7.5,4.7
				c-6.6,3.6-13.7,2.1-18.5-3.4c-1.6-1.8-3-3.9-4-6.1c-1-2.1-1.8-4.3-2.4-6.6c-1.6-6.3-2.5-12.8-2.7-19.3
				c-0.2-6.6,0.3-13.2,1.5-19.8c0.1-1.1,0.4-2.1,0.7-3.2c0.3-1.1,0.8-2.2,1.4-3.2c2.1-4.5,5.3-6.6,9.6-6.2c1.9,0.2,3.6,1.1,5,2.4
				c1.6,1.6,2.6,3.6,3,5.7c0.7,2.5,1,5,1,7.6c-0.2,3.6-0.5,7.1-0.9,10.6c-0.4,3.5-0.7,7-0.9,10.6c-0.1,2-0.3,4-0.4,6
				c-0.2,2-0.4,3.9-0.6,5.8v1.8c0,0.6,0.1,1.1,0.3,1.7c0.2,0.8,0.6,1.6,1.1,2.3c0.6,0.8,1.8,0.8,3.4-0.2h0.2l0.2-0.2l0.3-0.3
				c0.2,0,0.3,0,0.3-0.1s0.1-0.1,0.2-0.1l0.8-0.8l1.2-1.2c2.7-3.1,4.5-6.8,5.2-10.8c1-5.4,0.4-9.5,4.7-21.7s16.9-22.9,24.4-25.5
				s19.5-2.4,26.1,4.6s8.1,14.6,6.5,19.5s-3.6,11.1-14.5,19.8S330.7,186.7,327.1,184.7L327.1,184.7z"/>
		</defs>
		<clipPath id="SVGID_34_">
			<use xlink:href="#SVGID_33_"  style="overflow:visible;"/>
		</clipPath>
		<path class="st18" d="M283.4,152.5c0,0-3.4,25.2-1.9,31.5s1.1,21,7.2,21.1s18.1-3.6,20.1-11.9c0-8.6,8-32,12.2-36.7
			s10.8-14.8,20.5-14.1s16.8,5.4,16.9,9.4s1.1,13.5-6.6,20.6s-13.1,9.7-16.5,9.1"/>
	</g>
	<g>
		<defs>
			<path id="SVGID_35_" d="M380.8,159.9c-1.2-0.6-2.6-0.6-3.9-0.2c-1.4,0.5-2.6,1.4-3.4,2.7c-0.7,1.2-1.3,2.4-1.9,3.4
				s-1.1,2.2-1.7,3.4l-2.9,5.9c-1,1.9-1.9,3.8-2.9,5.7c-1.5,2.5-3.2,4.8-5.1,7c-1.9,2.1-4.1,4-6.5,5.6c-2.1,1.5-4.5,2.6-7,3.4
				c-2.5,0.7-5.2,0.9-7.8,0.7c-1.4-0.1-2.7-0.4-3.9-0.9c-1.2-0.5-2.3-1.3-3.1-2.3c-1.1-1.1-1.9-2.4-2.5-3.8
				c-0.6-1.5-2.2-3.3-1.1-13.3c0-12.7,4.8-18.6,1.8-21c-11.3-2.1-15.7,10.6-19.9,20.3s1,21.6,2,22.9c1.6,2.1,3.3,4.1,5.3,5.8
				c4,3.2,8.8,5.3,13.9,6c5.4,1,10.9,0.8,16.2-0.6c5.2-1.5,10.1-4,14.2-7.5c5.5-4.3,10.2-9.6,13.9-15.5c3.7-6,6.7-12.3,9.1-18.9
				c0.1-0.3,0.2-0.6,0.2-0.8c0-0.4,0.1-0.8,0.3-1.2C384.7,163.8,383.6,161.4,380.8,159.9L380.8,159.9z"/>
		</defs>
		<clipPath id="SVGID_36_">
			<use xlink:href="#SVGID_35_"  style="overflow:visible;"/>
		</clipPath>
		<path class="st19" d="M321.5,157c0,0-5.1,27.3-3.4,32.4s6.9,16.6,17.5,15.9s23.9-4.9,29.8-15.4s11.6-19.6,12.2-22.6"/>
	</g>
</g>
<g>
	<path id="dot" class="st20" d="M285.9,144.7c-2.7,0.1-4.8-0.5-6.6-1.8c-1.7-1.3-2.8-3.1-3-5.4c-0.2-1.9,0.3-3.6,1.4-5.1
		s2.5-2.5,4.3-2.8c1.9-0.4,3.6-0.2,5.1,0.8s2.5,2.4,3,4.2c0.2,0.5,0.4,1,0.5,1.4s0.3,0.9,0.5,1.3c0.8,2,0.7,2.9-0.3,4.4
		C289.8,143.2,288.2,144.8,285.9,144.7z"/>
</g>
</svg>
