<?xml version="1.0" encoding="utf-8"?>
<!-- Generator: Adobe Illustrator 25.0.0, SVG Export Plug-In . SVG Version: 6.00 Build 0)  -->
<svg version="1.1" id="Layer_1" xmlns="http://www.w3.org/2000/svg" xmlns:xlink="http://www.w3.org/1999/xlink" x="0px" y="0px"
	 viewBox="0 0 868.2 1385.1" style="enable-background:new 0 0 868.2 1385.1;" xml:space="preserve">
<style type="text/css">
	.st0{fill:none;stroke:#FFFFFF;stroke-width:6.9919;stroke-miterlimit:10;}
</style>
<path class="st0" d="M85.8,794.7c-43.9-86.2-38.1-188.4-26.3-257c7.8,8.2,17.9,15.2,30.7,20c1.4,4.4,6.1,18.7,13.2,38.2
	C82.1,659.7,85.8,794.7,85.8,794.7z"/>
<path class="st0" d="M285.8,790.4c-0.4,131.5-98.9,565.8-98.9,565.8s-35.1-209.1-52.6-286.4c-49.7-218.7-35.8-370.9-21-448.1
	c25.2,64.9,67.2,156.9,107.9,172.9c0,0,6.5,3,22.2,2.4C253.4,796.8,267.3,795.1,285.8,790.4z"/>
<path class="st0" d="M552,609.6v-10.1C552,599.4,552.9,603.1,552,609.6z"/>
<path class="st0" d="M639.1,115.4c-94.6-143.7-257.5-89-257.5-89s-2.4-7.2-55.2-17.6c-137-30.2-225.1,200.3-225.1,200.3
	C59,266.3,88.6,362.9,91.2,370.9c0.1,0.4,0.2,0.5,0.2,0.5s0-3.2-0.1-8.1c-0.2-13.7-0.4-40.8,0.1-48.2c0-0.4,0.1-1.3,0.3-2.5
	c0.1-0.3,0.1-0.5,0.2-0.8c0.1-0.3,0.1-0.6,0.2-1c0.2-1.1,0.5-2.3,0.8-3.7c0.1-0.2,0.1-0.5,0.2-0.7c0.3-1.3,0.6-2.8,1-4.3
	c0.1-0.3,0.1-0.6,0.2-0.8c0.1-0.3,0.1-0.6,0.2-0.9c0.1-0.3,0.1-0.6,0.2-0.9c0.1-0.5,0.2-1,0.4-1.4c0.1-0.5,0.2-1,0.4-1.6
	c0.1-0.5,0.3-1.1,0.4-1.6c0.1-0.3,0.2-0.7,0.2-1c0.5-2.1,1.1-4.4,1.8-6.7c0.2-0.6,0.3-1.2,0.5-1.8c0.2-0.8,0.5-1.7,0.7-2.6
	c0.2-0.7,0.4-1.3,0.6-2c0.1-0.5,0.3-1,0.4-1.5c0.1-0.4,0.2-0.8,0.4-1.2c1.2-4.4,2.6-9,4.1-13.8c0.1-0.5,0.3-0.9,0.4-1.3
	c0.1-0.3,0.2-0.5,0.2-0.8c0.4-1.4,0.9-2.8,1.3-4.2c0.6-1.9,1.2-3.8,1.8-5.7c0.5-1.5,0.9-2.9,1.4-4.4c1-3,2-6,3.1-9.1
	c0.3-0.9,0.6-1.8,1-2.7c1.2-3.3,2.4-6.6,3.7-9.9c0.2-0.5,0.3-0.9,0.5-1.4c0.3-0.7,0.5-1.5,0.8-2.2c0.4-1,0.8-2,1.2-3
	c0.2-0.5,0.4-1,0.6-1.5c0.6-1.5,1.2-3,1.8-4.4c0.3-0.7,0.5-1.3,0.8-1.9c0.6-1.3,1.1-2.6,1.7-3.9c0.6-1.5,1.3-2.9,1.9-4.4
	c0.3-0.7,0.6-1.4,1-2.1c1.6-3.5,3.2-6.9,4.9-10.3c0.5-1,1-2,1.5-3c0.2-0.3,0.3-0.7,0.5-1c0.3-0.6,0.6-1.1,0.9-1.7
	c0.4-0.7,0.7-1.3,1.1-2c1.3-2.4,2.6-4.7,4-7c0.3-0.6,0.7-1.2,1.1-1.8c0.4-0.6,0.8-1.3,1.2-1.9c2.6-4.1,5.2-7.9,8-11.4
	c0.4-0.5,0.8-1.1,1.3-1.6l0,0c1.1-1.3,2.1-2.5,3.2-3.7c0.6-0.7,1.2-1.3,1.8-2c0.3-0.3,0.7-0.7,1-1c0.2-0.2,0.5-0.5,0.7-0.7
	c7.3-7.1,15-11.3,23-11.5c50.5-1.4,118.2-34.1,118.2-34.1c237.4,470.2,332.5,337.5,346.2,313c0.2-0.3,0.3-0.6,0.5-0.9
	c0,0,0-0.1,0.1-0.1c0.1-0.2,0.2-0.5,0.4-0.7c0.2-0.3,0.3-0.6,0.4-0.8c0,0,0-0.1,0.1-0.1c0,0,0-0.1,0.1-0.1l0,0v-0.1
	c0,0,0-0.1,0.1-0.1c0,0,0-0.1,0.1-0.1c0.1-0.2,0.2-0.4,0.2-0.4c0.5,0.7,0.9,1.4,1.4,2.1c27,43-12.8,106.7-14.7,109.6v0.2
	c-10,54.7-75.9,69.7-82.3,71.1c-0.3,0-0.5,0.2-0.5,0.2l-6.6,30.9l-0.1,0.7l-112.9,739.4l291.2-302.1c36.5-25,77.3-319.8,77.3-319.8
	c21.7,50.3,2.9,226.8-8.7,259.3c-1.6,4.5-14.2,38.4-15.9,42.5c2.1-4.2,54.2-106.3,55.9-110.7C943.4,642.4,728.6,251.4,639.1,115.4z
	 M702.9,989.8c1-1.4,53.3-67.8,0-366.7C702.9,623,823.7,901,702.9,989.8z"/>
<path class="st0" d="M634.5,528v0.2c-10,54.7-75.9,69.7-82.3,71.1c-0.3,0-0.5,0.2-0.5,0.2l-6.6,30.9l-0.1,0.7
	c-5.1,10-13.5,22.1-27.3,35.7c-14.1,13.8-33.8,29.1-61.4,45.2c-78.8,47.2-133.7,68.9-170.5,78.4c-18.5,4.8-32.3,6.5-42.5,6.8
	c-15.7,0.5-22.2-2.4-22.2-2.4c-40.7-16-82.7-108-107.9-172.9c-3.6-9.3-6.9-18-9.7-25.8c-7.1-19.5-11.8-33.8-13.2-38.2
	c8.4,3.1,18,5.2,28.9,5.9c2.9,0.2,5.6,0.2,8.3,0.1c0.2,0,0.4,0,0.6,0c12.9-0.6,23.7-4.4,32.8-10.4c46.8-30.8,49-118.8,49-118.8
	l-8.7-12.6c15-14.8,55.9,8.4,55.9,8.4l-6.5,13.5c0,0-2.3,99.5,90.2,126.2s112.9-84.4,112.9-84.4c-0.7-36.5,29-48.2,29-48.2v-10
	l-21-2.6c-125-95.8-198.9-2.4-198.9-2.4c-47-22.6-65.7-4.4-65.7-4.4c-33.2-36.5-73.2-38.6-107.2-30c0.3-8.3,1-16.1,1-16.1v-0.7
	c0.1,0.4,0.2,0.5,0.2,0.5s0-3.2-0.1-8.1l0.5-50.6c0.1-0.3,0.1-0.5,0.2-0.8c0.1-0.3,0.1-0.6,0.2-1c0.2-1.1,0.5-2.3,0.8-3.7
	c0.1-0.2,0.1-0.5,0.2-0.7c0.3-1.3,0.6-2.8,1-4.3c0.1-0.3,0.1-0.6,0.2-0.8c0.1-0.3,0.1-0.6,0.2-0.9c0.1-0.3,0.1-0.6,0.2-0.9
	c0.1-0.5,0.2-1,0.4-1.4c0.1-0.5,0.3-1,0.4-1.6c0.1-0.5,0.3-1.1,0.4-1.6c0.1-0.3,0.2-0.7,0.2-1c0.5-2.1,1.1-4.4,1.8-6.7
	c0.2-0.6,0.3-1.2,0.5-1.8c0.2-0.8,0.5-1.7,0.7-2.6c0.2-0.7,0.4-1.3,0.6-2c0.1-0.5,0.3-1,0.4-1.5c0.1-0.4,0.2-0.8,0.4-1.2
	c1.2-4.4,2.6-9,4.1-13.8c0.1-0.4,0.3-0.9,0.4-1.3c0.1-0.3,0.2-0.5,0.2-0.8c0.4-1.4,0.9-2.8,1.3-4.2c0.6-1.9,1.2-3.8,1.8-5.7
	c0.5-1.5,0.9-2.9,1.4-4.4c1-3,2-6,3.1-9.1c0.3-0.9,0.6-1.8,1-2.7c1.2-3.3,2.4-6.6,3.7-9.9c0.2-0.5,0.3-0.9,0.5-1.4
	c0.3-0.7,0.5-1.5,0.8-2.2c0.4-1,0.8-2,1.2-3c0.2-0.5,0.4-1,0.6-1.5c0.6-1.5,1.2-3,1.8-4.4c0.3-0.7,0.5-1.3,0.8-1.9
	c0.6-1.3,1.1-2.6,1.7-3.9c0.6-1.5,1.3-2.9,1.9-4.4c0.3-0.7,0.6-1.4,1-2.1c1.6-3.5,3.2-6.9,4.9-10.3c0.5-1,1-2,1.5-3
	c0.2-0.3,0.3-0.7,0.5-1c0.3-0.6,0.6-1.1,0.9-1.7c0.4-0.7,0.7-1.3,1.1-2c1.3-2.4,2.6-4.7,4-7c0.3-0.6,0.7-1.2,1.1-1.8
	c0.4-0.6,0.8-1.3,1.2-1.9c2.6-4.1,5.2-7.9,8-11.4c0.4-0.5,0.8-1.1,1.3-1.6l0,0c1.1-1.3,2.1-2.5,3.2-3.7c0.6-0.7,1.2-1.3,1.8-2
	c0.3-0.3,0.7-0.7,1-1c0.2-0.2,0.5-0.5,0.7-0.7c7.2-6.9,14.9-11.1,22.8-11.4c50.5-1.4,118.2-33.9,118.2-33.9
	c238.6,472.6,333.4,336.1,346.4,312.7c0.2-0.3,0.3-0.6,0.5-0.9c0,0,0-0.1,0.1-0.1c0.1-0.2,0.2-0.5,0.4-0.7c0.2-0.3,0.3-0.6,0.4-0.8
	c0,0,0-0.1,0.1-0.1c0,0,0-0.1,0.1-0.1l0,0v-0.1c0,0,0-0.1,0.1-0.1c0,0,0-0.1,0.1-0.1c0.5,0.6,1.1,1.1,1.5,1.7
	C676.2,461.3,636.4,525,634.5,528z"/>
<path class="st0" d="M91.2,371.5c0,0-0.1-0.2-0.2-0.5l0.1-7.6C91.2,368.3,91.2,371.5,91.2,371.5z"/>
<path class="st0" d="M91.6,312.1c3.8-19.9,27.5-112.2,60.3-152.4c-0.4,0.5-0.9,1.1-1.3,1.6c-2.7,3.5-5.4,7.3-8,11.4
	c-0.4,0.6-0.8,1.2-1.2,1.9c-0.4,0.6-0.7,1.2-1.1,1.8c-1.4,2.3-2.7,4.6-4,7c-0.4,0.6-0.7,1.3-1.1,2c-0.3,0.5-0.6,1.1-0.9,1.7
	c-0.2,0.3-0.3,0.7-0.5,1c-0.5,1-1,2-1.5,3c-1.7,3.3-3.3,6.8-4.9,10.3c-0.3,0.7-0.6,1.4-1,2.1c-0.7,1.5-1.3,2.9-1.9,4.4
	c-0.6,1.3-1.1,2.6-1.7,3.9c-0.3,0.6-0.5,1.3-0.8,1.9c-0.6,1.5-1.2,3-1.8,4.4c-0.2,0.5-0.4,1-0.6,1.5c-0.4,1-0.8,2-1.2,3
	c-0.3,0.7-0.6,1.5-0.8,2.2c-0.2,0.5-0.4,0.9-0.5,1.4c-1.3,3.3-2.5,6.6-3.7,9.9c-0.3,0.9-0.7,1.8-1,2.7c-1.1,3.1-2.1,6.1-3.1,9.1
	c-0.5,1.5-1,2.9-1.4,4.4c-0.6,1.9-1.2,3.8-1.8,5.7c-0.5,1.4-0.9,2.8-1.3,4.2c-0.1,0.3-0.2,0.5-0.2,0.8c-0.1,0.5-0.3,0.9-0.4,1.3
	c-1.5,4.8-2.8,9.4-4.1,13.8c-0.1,0.4-0.2,0.8-0.4,1.2c-0.1,0.5-0.3,1-0.4,1.5c-0.2,0.7-0.4,1.4-0.6,2c-0.2,0.9-0.5,1.7-0.7,2.6
	c-0.2,0.6-0.3,1.2-0.5,1.8c-0.6,2.4-1.2,4.6-1.8,6.7c-0.1,0.3-0.2,0.7-0.2,1c-0.2,0.6-0.3,1.1-0.4,1.6c-0.1,0.5-0.3,1.1-0.4,1.6
	c-0.1,0.5-0.2,1-0.4,1.4c-0.1,0.3-0.1,0.6-0.2,0.9c-0.1,0.3-0.1,0.6-0.2,0.9c-0.1,0.3-0.1,0.6-0.2,0.8c-0.4,1.6-0.7,3-1,4.3
	c0,0.2-0.1,0.5-0.2,0.7c-0.3,1.4-0.6,2.6-0.8,3.7c-0.1,0.3-0.1,0.7-0.2,1c-0.1,0.3-0.1,0.6-0.2,0.8L91.6,312.1z"/>
<path class="st0" d="M155.1,156c-1.1,1.2-2.1,2.4-3.2,3.7C152.9,158.4,154,157.2,155.1,156z"/>
<path class="st0" d="M128.1,563.6C128.1,563.6,128.1,563.6,128.1,563.6c-0.2,0.1-0.4,0.1-0.6,0.1
	C127.7,563.7,127.9,563.6,128.1,563.6z"/>
<path class="st0" d="M647.6,416.6C647.6,416.6,647.6,416.7,647.6,416.6C647.6,416.6,647.6,416.6,647.6,416.6L647.6,416.6z"/>
<path class="st0" d="M634.7,528.1c-7.2,56.5-75.9,70.1-82.3,71.3c-0.1,0-0.2,0-0.3,0.1l0,0c-0.1,0-0.2,0.1-0.2,0.1v10.1
	c-0.7,5.2-2.5,12.2-6.7,20.8c-0.1,0.2-0.2,0.4-0.3,0.5l0.1-0.7l6.6-30.9c0,0,0.2-0.2,0.5-0.2c6.5-1.4,72.4-16.4,82.3-71.1v-0.2
	c1.9-2.9,41.7-66.6,14.7-109.6C683.9,458.9,636.9,525,634.7,528.1z"/>
<path class="st0" d="M702.9,989.8c1-1.4,53.3-67.8,0-366.7C702.9,623,823.6,901,702.9,989.8z"/>
<path class="st0" d="M482.8,427.3v10c0,0-29.7,11.7-29,48.2c0,0-20.5,111.2-112.9,84.4c-92.5-26.8-90.2-126.2-90.2-126.2l6.5-13.5
	c0,0-40.9-23.2-55.9-8.4l8.7,12.6c0,0-2.3,88-49,118.8c-9.1,6-20,9.9-32.8,10.4c0-0.1,0-0.1,0-0.1c-0.2,0-0.4,0.1-0.6,0.1
	c-2.7,0.1-5.4,0-8.3-0.1c-11-0.8-20.5-2.8-28.9-5.9c-12.9-4.7-22.9-11.8-30.7-20c-27.6-28.8-27.6-71-27.6-71s-7.7-22.7-23.6-25.9
	l-2.6-16.4h11c0,0,32.1-26.2,73.2-36.7c33.9-8.6,74-6.5,107.2,30c0,0,18.7-18.2,65.7,4.4c0,0,73.9-93.3,198.9,2.4L482.8,427.3z"/>
<path class="st0" d="M128.1,563.6C128.1,563.6,128.1,563.6,128.1,563.6c-0.2,0.1-0.4,0.1-0.6,0.1
	C127.7,563.7,127.9,563.6,128.1,563.6z"/>
<path class="st0" d="M430.5,204.4c0,0,57.9,194.7,152.4,220.1C582.9,424.5,444.7,254,430.5,204.4z"/>
</svg>
