<svg id="Layer_1" data-name="Layer 1" xmlns="http://www.w3.org/2000/svg" xmlns:xlink="http://www.w3.org/1999/xlink" viewBox="0 0 35.48 60.28"><defs><clipPath id="clip-path" transform="translate(-18.52 -33.66)"><path id="L1" d="M38.15,47.34a17.6,17.6,0,0,0-1.25-5.87,3.29,3.29,0,0,0-2-1.28A5.3,5.3,0,0,0,33.51,40a7,7,0,0,0-1.64.25,2.49,2.49,0,0,0-1.56,1.21,1.83,1.83,0,0,0-.2.57A8.33,8.33,0,0,0,30,43.36q-.06.93-.09,2.67c0,1.17,0,2.71-.06,4.62s0,4.32-.09,7.22q0,7-.1,10.78c-.05,2.51-.13,4.4-.23,5.67s-.25,2.38-.41,3.33l0,.17-.55,2.63v0a3.09,3.09,0,0,1-.06.34,15.34,15.34,0,0,1-.52,1.69,17.65,17.65,0,0,1-.93,2.5,5.85,5.85,0,0,1-2.24,2.8l-1.07,2.09a6.07,6.07,0,0,0,.85.06,8.59,8.59,0,0,0,3.64-.89,12.17,12.17,0,0,0,2.87-2.22,13,13,0,0,0,2.33-3.05c.19-.33.35-.63.49-.88l1.5-3.26a45.84,45.84,0,0,0,2.06-8.84,117.07,117.07,0,0,0,1.23-13q0-1.14,0-2.25Q38.57,51.71,38.15,47.34Z" fill="none"/></clipPath><clipPath id="clip-path-2" transform="translate(-18.52 -33.66)"><path id="L2" d="M52.48,83.85c0,.34-.27.74-.81,1.22a7.88,7.88,0,0,1-1.94,1.24A9.32,9.32,0,0,1,46,87.1c-.31,0-.63,0-1,0a17.15,17.15,0,0,1-4.83-1.3,33.08,33.08,0,0,1-4.33-2.23c-.52-.31-1-.55-1.3-.73L34,82.53a3.08,3.08,0,0,0-.23.41l.51-1.1L28.4,80.45c0-.1,0-.17,0-.23a.34.34,0,0,0-.11-.29.89.89,0,0,0-.64-.18A4.28,4.28,0,0,0,24.55,81a7.93,7.93,0,0,0-2,5,2.53,2.53,0,0,0,.32,1.36,1.08,1.08,0,0,0,1,.6,1.93,1.93,0,0,0,.75-.17l0,0-1.07,2.09H23.5a3.77,3.77,0,0,1-2.87-1.58,4.81,4.81,0,0,1-.77-2.48,8,8,0,0,1,.43-2.42,7.15,7.15,0,0,1,2.76-3.71,8,8,0,0,1,4.58-1.32,5.76,5.76,0,0,0,.86,0,.45.45,0,0,0,.34-.19,2,2,0,0,0,.12-.35l5.76,3,.54-1.17c0,.11-.09.22-.13.32v0c0,.14.2.37.6.68s1.44,1,2.82,1.78l.71.43a22.88,22.88,0,0,0,4.17,2.19,9.27,9.27,0,0,0,3.1.73,6.38,6.38,0,0,0,2.78-.64,5.35,5.35,0,0,0,1.25-.93,2.82,2.82,0,0,1,.77-.52,1.65,1.65,0,0,1,.8-.17C52.36,83.6,52.48,83.69,52.48,83.85Z" fill="none"/></clipPath></defs><g id="L1_mask" data-name="L1 mask"><g clip-path="url(#clip-path)"><g id="L"><path d="M28.85,38.17c.38,9.17,1.1,18.42.55,27.59a50.17,50.17,0,0,1-1.92,11.93c-.28,1-.6,2-1,3-.17.5-.36,1-.55,1.49s-.23.56-.08.18l-.27.62c-.19.41-.38.82-.6,1.22-.06.11-.76,1.24-.4.72.22-.27.19-.24-.08.07s-.31.33.17,0c-.43.25-.35.24.23,0-.49.13-.4.12.25,0a4.5,4.5,0,1,0,0,9c5.85-.23,8.22-5.87,9.94-10.62a60.06,60.06,0,0,0,3-14.72c1-10.09.09-20.33-.33-30.43a4.5,4.5,0,0,0-9,0Z" transform="translate(-18.52 -33.66)"/></g></g></g><g id="L2_mask" data-name="L2 mask"><g clip-path="url(#clip-path-2)"><g id="L3"><path d="M25.35,87a3.15,3.15,0,0,1-1.9-.43c-.54-.35-.48-.39-.4-1.08a3.72,3.72,0,0,1,1.58-2.75,5.5,5.5,0,0,1,4.18-.61,25.59,25.59,0,0,0,2.54,1c.83.24,1.68.41,2.5.67,3.44,1,6.57,2.87,10,3.94a9.77,9.77,0,0,0,5.19.43,9,9,0,0,0,4.37-2.8c1.92-2.16-1.25-5.35-3.19-3.18a3.91,3.91,0,0,1-4.53,1.4,46.89,46.89,0,0,1-5.93-2.3,39.58,39.58,0,0,0-6-2.18,15,15,0,0,1-2.7-.91,7,7,0,0,0-3.2-.8c-4.05,0-7.8,2-9,6.05-.54,1.81-.61,4,.66,5.57a7.27,7.27,0,0,0,5.8,2.43c2.89-.08,2.9-4.58,0-4.5Z" transform="translate(-18.52 -33.66)"/></g></g></g></svg>