<svg id="logo" data-name="Layer 1" 
xmlns="http://www.w3.org/2000/svg" 
viewBox="0 0 197.79 183.33"><defs>
<style>.cls-1{fill:#ef82b0;}</style></defs>
<path class="cls-1" d="M196.28,130.55l-12.67,2.6-8.76,1.27a91.62,91.62,0,0,0-16-106.9,92.64,92.64,0,0,0-131.06-.73A93.68,93.68,0,0,0,0,92.69H8.19A86,86,0,0,1,93.69,6.15l.51,0L91.85,152.54v.65a107.29,107.29,0,0,0-11.31,3.41,41.17,41.17,0,0,0-6.61,3.08c-2.06,1.31-4.32,2.79-5.43,5.7-1,3.25,1.16,6.21,3.05,7.79a29.2,29.2,0,0,0,6.37,4.17A75,75,0,0,0,86.8,181,89,89,0,0,1,4.1,92.69a90.08,90.08,0,0,0,89.59,90.64l.68,0a90.56,90.56,0,0,0,63.72-26.17,87.88,87.88,0,0,0,12-14.64l1.63-.2,13.06-1.47,13-2.22ZM155.23,31.14A87.47,87.47,0,0,1,170.63,135c-8.56,1.23-17.15,2.54-25.71,4-16.18,2.79-32.35,5.83-48.27,10.38L94.35,6.18A86.88,86.88,0,0,1,155.23,31.14ZM73.74,170.51c-1.74-1.26-2.93-2.79-2.58-4.4,1.11-3.56,5.93-6.2,9.92-8.24,2.71-1.31,8-3.13,10.75-4.19v5.75l-.41,6.66c-.46,4-.34,7.25-2.5,9.17a23,23,0,0,1-9.29-1.69A26,26,0,0,1,73.74,170.51ZM155.92,155a88,88,0,0,1-61.08,26.25,108.2,108.2,0,0,0,2.74-13.71,80.68,80.68,0,0,0,.47-13.38c15.66-3.92,31.76-6.44,47.85-8.68,6.59-.89,13.2-1.65,19.82-2.42A84.22,84.22,0,0,1,155.92,155Z"/></svg>