<?xml version="1.0" encoding="utf-8"?>
<!-- Generator: Adobe Illustrator 24.3.0, SVG Export Plug-In . SVG Version: 6.00 Build 0)  -->
<svg version="1.1" id="Layer_1" xmlns="http://www.w3.org/2000/svg" xmlns:xlink="http://www.w3.org/1999/xlink" x="0px" y="0px"
	 viewBox="0 0 299 144" style="enable-background:new 0 0 299 144;" xml:space="preserve">
<style type="text/css">
	.st0{clip-path:url(#mask_1_);fill:none;stroke:#000000;stroke-width:0.5;stroke-miterlimit:10;}
</style>
<g>
	<defs>
		<path id="mask" d="M296.7,44.8c-0.2-0.1-0.4-0.1-0.7-0.1c-0.3,0-0.6,0-0.8,0.1c-0.2,0.1-0.4,0.3-0.5,0.7c-0.2,0.4-0.4,0.9-0.7,1.7
			c-1.3,3.4-2.3,5.9-2.9,7.5c-0.7,1.6-1.4,3.1-2,4.4c-1.4,2.9-3.2,5.7-5.4,8.2l-1.3,1.4l-0.3-3.4c-0.2-2.9-0.5-5.8-0.8-8.8
			c-0.4-3-0.7-5.4-1.1-7.2c-1.2-6-2.9-9.9-5.1-11.7c-0.5-0.5-0.9-0.8-1.3-0.9c-0.4-0.1-1-0.2-1.8-0.2c-0.6,0-1,0-1.4,0.1
			c-0.4,0.1-0.7,0.2-0.8,0.3c-0.1,0.1-0.2,0.4-0.3,0.8c-0.1,0.4-0.2,0.9-0.3,1.3c-0.7,5.4-1.8,10.5-3.3,15.5c-1.5,5-4,9.6-7.3,13.9
			c-2,2.6-3.5,4-4.4,4h-0.1c-1,0-1.9-1.6-2.9-4.8c-1-3.2-1.5-6.3-1.7-9.4c-0.1-2.2-0.2-4.5-0.2-6.8c0-0.9,0-1.9,0.1-2.8v-0.6
			c0-2.1,0.1-3.7,0.1-5c0-1.2,0-2.2-0.1-2.9c-0.1-0.7-0.1-1.2-0.2-1.5c-0.1-0.4-0.2-0.7-0.4-1c-0.7-1.8-2.5-2.6-5.3-2.6
			c-1.5,0-2.7,0.2-3.5,0.6c-0.8,0.4-1.4,1-1.8,2c-1,2.2-1.5,5.1-1.8,8.8c-0.1,1.2-0.1,2.4-0.1,3.5c0,1.8,0.1,3.7,0.4,5.7
			c-0.7,1.6-1.6,3.6-2.8,6.1c-1.4,2.8-3,5.6-5,8.2c-1.9,2.6-4,4.4-6.3,5.4c-0.7,0.3-1.5,0.5-2.2,0.5c-1.6,0-3.3-0.7-4.9-2.1
			c-1.6-1.5-2.9-3.6-4-6.2c-1.1-2.6-1.7-5.1-1.8-7.5v-1.3l3.4-1c4.1-1.2,7.6-3.3,10.5-6.4c2.3-2.7,3.6-5.5,4-8.5
			c0.1-0.6,0.1-1.2,0.1-1.8c0-2.2-0.6-4.2-1.8-5.9c-1.9-2.4-4.3-3.8-7.3-4.1c-0.7-0.1-1.5-0.1-2.1-0.1c-2.2,0-4.5,0.4-6.8,1.3
			c-5,2-8.7,5.3-11,10c-0.9,1.7-1.6,3.5-2,5.4c-4.5,3.7-10.4,5.9-17.7,6.5c-0.5,0-1,0.1-1.4,0.1c-1.1,0-2.5-0.1-4-0.3
			c-1.6-0.2-2.9-0.5-4.1-1c-0.5-0.2-0.7-0.8-0.8-1.9v-0.4c0-0.9,0.1-1.9,0.3-3.2c0.2-1.2,0.4-2.4,0.7-3.6c0.1-0.9,0.3-1.6,0.4-2.1
			c3.5-0.8,7-2.7,10.3-5.6c3.4-2.9,6.2-6.3,8.4-10.2c2.3-3.9,3.5-7.7,3.7-11.4v-0.8c0-3.4-1.3-6.2-3.9-8.5c-1.7-1.4-3.7-2.1-5.8-2.1
			c-0.3,0-1.1,0.1-2.4,0.2c-1.4,0.1-3.1,0.8-5.3,2.2c-3.8,2.5-6.9,6.5-9.4,12.1c-3,7.2-5.3,15.3-6.7,24.3c-0.9,5.9-1.4,11.6-1.4,17
			c0,2.2,0.1,4.3,0.3,6.4c-0.6,1.9-1.2,3.4-1.8,4.6c-2,4.3-3.6,6.4-4.8,6.4c-0.1,0-0.5-0.1-1.2-0.3c-0.7-0.2-1.4-2.7-2.2-7.4
			c-0.4-2-0.6-4.4-0.8-7.2c-0.1-2.1-0.1-4.6-0.1-7.7v-6.6c0-2.1,0-3.9-0.1-5.5c-0.1-1.6-0.2-2.8-0.5-3.6c-0.3-0.8-0.7-1.5-1.3-2
			c-0.4-0.4-0.8-0.7-1.3-0.8c-0.4-0.1-1.2-0.2-2.1-0.3c-0.4,0-0.7-0.1-1-0.1c-2.2,0-3.8,0.8-4.6,2.5c-0.9,1.8-1.4,5.2-1.4,10.2v1.1
			c0,2.7-0.2,5-0.5,6.9c-0.3,1.9-1,4.4-2,7.5c-1.1,3.7-2.4,6.5-3.6,8.4c-1.8,2.7-3.4,4.1-5,4.2h-0.2c-1.5,0-2.6-1.7-3.4-5.1
			c-0.4-2.4-0.7-5.1-0.7-8c0-1.1,0.1-3,0.2-5.6c0.2-2.7,0.5-5.7,1-9.1c0.5-3.1,0.8-5.4,0.9-6.9c0.1-0.8,0.2-1.5,0.2-2.1
			c0-0.4-0.1-0.9-0.2-1.3c-0.1-0.5-0.4-0.9-0.8-1.2c-1-0.9-2.3-1.3-4-1.4h-0.2c-1.6,0-3.1,0.4-4.4,1.2c-1.5,1.1-2.7,3.3-3.6,6.6
			c-0.9,3.3-1.4,7.1-1.5,11.3v1c0,1.4,0.1,2.8,0.2,4.2c-1.4,4.5-2.8,7.8-4.2,10c-1.7,3-3.3,4.7-4.8,5.2c-0.2,0.1-0.4,0.1-0.6,0.1
			c-1.4,0-2.6-1.6-3.8-4.8c-1-2.6-1.6-5.8-1.7-9.5c0-0.9-0.1-1.8-0.1-2.9c0-3.3,0.2-7.3,0.7-12.1c0.3-2.8,0.4-4.9,0.5-6.4
			c0-0.5,0.1-0.9,0.1-1.3c0-0.8-0.1-1.5-0.2-2c-0.1-0.5-0.4-0.9-0.7-1.2c-0.4-0.4-1.2-0.6-2.3-0.8C89.5,33,89,33,88.6,33
			c-0.6,0-1.2,0.1-1.7,0.2c-0.9,0.2-1.7,0.6-2.5,1.3C83.6,35.2,83,36,82.7,37L82,38.6l-1.3-1.2c-2.8-2.4-6.1-3.6-10-3.6
			c-3.9,0-7.6,1-11.2,3c-3.6,2-6.5,4.8-8.7,8.5c-1.7,3-2.7,6.3-3.2,9.9c-0.1,1-0.2,2-0.2,3c0,2.5,0.4,4.9,1.2,7.3
			c0.4,1.2,0.9,2.3,1.5,3.3c-0.3,0-0.7,0.1-1.1,0.3c-0.5,0.2-0.9,0.5-1.2,0.8c-0.6,0.6-1.2,1-1.9,1.4c-1.4,0.7-2.8,1-4.3,1
			c-1.2,0-2.8-0.4-4.8-1.1c-2-0.8-4.1-1.9-6.4-3.4L29.2,67c-2.1-1.3-3.6-2.2-4.4-2.8c-0.6-0.5-0.9-0.8-0.9-1v-0.1
			c1.3-3.1,2.4-7.8,3.4-14.2c1-6.3,1.6-13,1.9-20.1c0-1.2,0.1-2.3,0.1-3.5c0-4-0.2-8.3-0.7-12.8c-0.4-4.5-1.1-7.5-1.9-9.1
			c-0.7-1-1.7-1.7-3.1-2c-0.7-0.2-1.4-0.3-2.1-0.3c-0.7,0-1.5,0.1-2.5,0.4c-1,0.3-1.8,0.9-2.4,1.9c-0.1,0.2-0.2,0.5-0.3,0.9
			c-0.1,0.4-0.2,1.1-0.2,2c-0.1,1-0.1,2.3-0.1,4.1c0,1.8-0.1,4.2-0.1,7.1c0,3-0.1,6.7-0.1,11.2c0,7.2-0.1,12.8-0.2,16.7
			c-0.1,3.9-0.2,6.8-0.4,8.8c-0.2,2-0.4,3.7-0.6,5.2c-0.1,0.4-0.2,0.6-0.2,0.8c-0.1,0.2-0.3,0.3-0.5,0.3c-0.3,0-0.7,0.1-1.3,0.1
			c-2.7,0-5.1,0.7-7.1,2c-2,1.4-3.4,3.3-4.3,5.7c-0.4,1.4-0.7,2.6-0.7,3.7c0,1.2,0.4,2.5,1.2,3.8c0.8,1.3,2.3,2.1,4.4,2.5
			c0.5,0.1,1,0.1,1.4,0.1c1.8,0,3.6-0.5,5.6-1.4c1.4-0.7,2.9-1.9,4.4-3.4c1.6-1.6,2.8-3.1,3.6-4.7c0.3-0.5,0.5-1,0.7-1.3
			c0.2-0.4,0.3-0.6,0.4-0.6c0,0,0.3,0.1,0.9,0.4c0.5,0.3,1.2,0.7,2,1.1c2,1.2,4.3,2.4,6.7,3.4c2.4,1,4.9,1.7,7.5,2
			c0.5,0,1,0.1,1.5,0.1c2,0,4-0.4,5.8-1.2c1.2-0.6,2.2-1.2,3-1.9c0.6-0.5,1-1,1.1-1.4c1.4,2.3,3.1,4.2,5.1,5.8
			c2.8,2.1,5.7,3.1,8.7,3.1c0.5,0,1.8-0.1,3.9-0.4c2.1-0.3,4.4-2.6,6.9-7.1c1.2-2.2,2.4-5.2,3.6-8.8l1.8-5.7l0.4,2.1
			c0.8,4.1,2.2,7.7,4.1,10.8c1.9,3.1,4,5.2,6.3,6.4c1.7,0.8,3.3,1.2,5.1,1.2c0.4,0,1.2-0.1,2.5-0.2c1.3-0.1,2.7-1,4.3-2.6
			c1-1.1,2-2.6,3-4.6c0.7-1.4,1.3-2.9,1.9-4.4c0,0.1,0,0.1,0,0.2c1.1,4,3,7.2,5.8,9.6c2.6,2.2,5.3,3.3,8.2,3.3
			c0.3,0,1.2-0.1,2.9-0.2c1.7-0.1,3.7-2.1,6-5.9c1.2-2.3,2.3-4.9,3.1-7.7c0.3-0.9,0.5-1.7,0.7-2.4c0.2-0.7,0.3-1,0.3-1
			c0.1,0,0.2,0.3,0.4,0.8c0.2,0.5,0.4,1.2,0.6,2c1,3.6,2.2,6.6,3.5,9c1.1,1.9,2.5,3.5,4.4,4.8c1.7,1.2,3.6,1.9,5.7,1.9h0.3
			c2.3-0.2,4.1-1.1,5.4-2.8c1.3-1.6,2.3-3.4,3-5.6c1.2,6.3,3.4,11.1,6.6,14.5c2,2,4.2,3.3,6.6,3.9c0.9,0.2,1.8,0.3,2.6,0.3
			c1.4,0,3-0.4,4.7-1.3c1.7-0.8,3.1-2.7,4.2-5.7c0.8-2.4,1.3-4.8,1.3-7.5c0-0.6-0.1-1.9-0.2-3.9c-0.1-2-0.9-4.3-2.3-6.7
			c-0.7-1.2-1.7-2.5-3-3.9c-1.3-1.4-2.6-2.6-3.9-3.6c-0.6-0.4-1.1-0.8-1.5-1.1c-0.4-0.3-0.7-0.5-0.7-0.6c0,0,0.3-0.1,1-0.1
			c0.7-0.1,1.5-0.1,2.6-0.1h0.3c4.2,0,8.2-0.6,12-1.9c2.7-0.9,5.1-2,7.2-3.3c-0.2,1.2-0.3,2.5-0.3,3.8c0,0.8,0,1.7,0.1,2.6
			c0.5,5,2.2,9.4,5.1,13.2c2.9,3.8,6.8,6.5,11.6,8c2,0.6,3.8,0.8,5.5,0.8c1.6,0,3.4-0.4,5.4-1.1c2-0.7,4-2.3,5.9-4.7
			c1.9-2.4,3.7-5.2,5.3-8.4c0.7-1.4,1.5-3.2,2.5-5.6c0.1,0.7,0.2,1.3,0.4,2c0.8,4,2.8,7.7,5.7,11.3c2.5,2.7,5.5,4,9,4
			c0.1,0,1,0,2.8,0c1.8,0,3.9-1.5,6.2-4.6c3.9-5.9,6.4-12.5,7.5-19.6c0.4-2,0.7-3.4,0.9-4c0.1-0.4,0.3-0.6,0.4-0.6
			c0,0,0.1,0.1,0.2,0.3c0.1,0.2,0.2,0.8,0.2,1.7c0.1,1.4,0.3,4,0.5,7.7c0.2,3.8,0.4,8.1,0.6,13c0,0.3,0.1,0.5,0.1,0.8
			c0.1,1.2,0.1,2.2,0.1,3c0,0.6,0,1.2-0.1,2c-0.1,0.7-0.4,1.3-1,1.9c-0.6,0.6-1.6,1.2-3,2c-0.2,0.1-0.4,0.2-0.6,0.4
			c-2.9,1.8-5.2,3.3-6.7,4.4c-1.5,1.1-2.9,2.4-4.3,3.8c-3.8,4.1-5.7,8.4-5.7,13.1c0,1.4,0.2,2.8,0.5,4.2c1.2,4.6,3.8,7.2,7.9,7.9
			c0.1,0,0.2,0.1,0.3,0.1c0.6,0.1,1.1,0.2,1.4,0.2h0.5c0.2,0,0.4,0,0.7-0.1c0.3,0,0.7-0.1,1.4-0.2l0.1-0.1c0.6-0.1,1.3-0.3,2-0.5
			c0.7-0.2,1.3-0.5,1.8-0.7c2-1,4-2.9,6.1-5.6c2-2.7,3.7-5.8,5.1-9.3c1-2.8,1.9-6,2.7-9.7c0.8-3.7,1.2-7.3,1.4-10.7l0.2-4.2l2.4-2.6
			c2.9-3.3,5.2-6.7,6.9-10.4c1.4-3.2,2.7-6.2,3.7-9c1-2.8,1.6-4.8,1.6-5.8C297,45,296.9,44.9,296.7,44.8z M209.6,54.8
			c0-2.2,0.3-4.8,1-7.9c0.7-3.1,1.5-5.6,2.5-7.5c1.3-2.5,2.7-4,4.3-4.6c0.6-0.2,1.1-0.3,1.5-0.3c0.9,0,1.9,0.5,2.8,1.4
			c1,0.9,1.5,2.7,1.5,5.4c-0.1,2.9-1,5.6-2.8,8c-1.8,2.4-4,4.3-6.6,5.6c-0.4,0.2-0.9,0.5-1.5,0.7c-0.6,0.3-1,0.5-1.4,0.6l-1.3,0.6
			V54.8z M170.7,37c1.1-5.6,2.5-10.9,4.2-15.8c1.7-5,3.4-8.9,5.2-11.7c1.3-2.1,2.5-3.2,3.7-3.2c1.2,0,2.5,1.1,3.9,3.4
			c1.1,1.9,1.7,4,1.7,6.2c0,1.7-0.5,4.1-1.6,7.1c-1.1,3-3.3,6.2-6.7,9.7c-3.4,3.5-7,5.8-10.7,7.1L170.7,37z M13.4,64.4
			c-0.1,0.5-0.4,1.3-0.8,2.6c-0.4,1.5-0.9,2.8-1.4,3.9c-1.2,2.4-2.4,3.8-3.5,4.4c-0.4,0.2-0.8,0.3-1.2,0.3c-0.6,0-1.1-0.3-1.5-0.9
			c-0.3-0.5-0.5-1.2-0.5-2.1c0-0.8,0.1-1.7,0.4-2.8c0.6-2.1,1.4-3.8,2.7-5c1.2-1.3,2.8-1.9,4.8-2c0.5,0,0.8,0.1,1,0.3
			c0.1,0.1,0.2,0.2,0.2,0.4C13.6,63.7,13.5,64,13.4,64.4z M80.6,45.2c0,0.3-0.1,0.9-0.3,1.6c-0.1,0.8-0.4,1.8-0.7,3.2
			c-2.1,8.9-4.9,15.6-8.5,20.1c-2.1,2.6-3.7,3.9-5,3.9c-0.1,0-0.5,0-1.1-0.1c-0.7-0.1-1.4-1.7-2.2-4.8c-0.4-2-0.7-4.1-0.7-6.5
			c0-2.3,0.3-5.6,1-9.6c0.7-4.1,2.3-8,5.1-11.7c1.7-2.2,3.5-3.3,5.3-3.3c0.3,0,1.1,0.1,2.3,0.4c1.2,0.2,2.7,1.9,4.3,5
			c0.1,0.2,0.3,0.5,0.3,0.7c0,0.1,0.1,0.2,0.1,0.4C80.6,44.7,80.6,44.9,80.6,45.2z M179.5,65.9c1.6,2.4,2.6,5.1,2.9,8
			c0.1,0.7,0.2,1.5,0.2,2.1c0,2.2-0.4,4.2-1.3,6.2c-1.7,3.5-3.4,5.3-5.3,5.3h-0.1c-1.9,0-3.7-1.7-5.2-5.1c-1-2.4-1.8-5.3-2.3-8.7
			c-0.3-2.3-0.4-5.9-0.4-10.7V60l0.1-3.8l2,1.2C174.1,59.6,177.3,62.5,179.5,65.9z M271.1,84c-0.1,1.2-0.4,2.9-0.8,5.1
			c-1.7,10-4.2,16.9-7.7,20.8c-0.8,0.9-1.4,1.4-1.9,1.6c-0.1,0.1-0.3,0.1-0.5,0.1c-0.3,0-0.6-0.1-1-0.3c-2.4-1.5-3.9-3.8-4.6-6.9
			c-0.2-1-0.3-1.9-0.3-2.9c0-2.3,0.5-4.6,1.5-6.9c2.1-4,7.1-8.4,15-13.2c0,0,0.1-0.1,0.1-0.1c0.1,0,0.2,0.2,0.2,0.5
			C271.3,82.1,271.3,82.8,271.1,84z"/>
	</defs>
	<clipPath id="mask_1_">
		<use xlink:href="#mask"  style="overflow:visible;"/>
	</clipPath>
	<polyline id="laufey" class="st0" points="20.7,-2.5 14.5,71.7 9.1,77.2 4.5,77.2 2.1,74.1 3.7,67 6.8,64 9.1,61.9 14.5,60.9 
		19.1,64 25.3,67 31.5,70.1 39.2,73.2 43.9,73.2 48.5,70.1 51.6,68.6 71.4,61 77.9,56.2 87.3,38 82.5,42.3 76.3,36.1 66.9,37.3 
		60.9,40.8 57.8,51.6 56.2,65.5 59.3,73.2 63.9,76.3 70.1,76.3 76.3,65.5 82.5,50 88.9,37.3 87.1,67 91.8,71.7 96.4,76.3 
		101.2,74.1 105.7,67 110.3,59.3 115.7,37.3 114.9,71.7 119.6,76.3 125.8,76.3 131.9,68.6 136.6,54.7 139.7,38 146.8,77.2 152,77.9 
		158.2,68.6 170.2,25.4 177.3,6.3 182.9,3.7 187.6,6.8 190.7,14.5 189.2,22.2 184.5,30 179.9,34.6 175.3,38.3 171.8,39.7 
		167.5,42.3 165.9,54.7 170.2,56.2 179.7,63.7 182.9,73.2 182.6,80.3 179.9,85.6 176.8,88.7 170.2,87.6 162.9,77.9 164.4,62.4 
		164.4,56.2 164.4,54.7 173.7,54.7 181.4,54.7 187.6,53.1 192.2,51.6 196.9,48.5 208.3,57.8 213.4,56.8 221.6,50 225.9,43.1 
		224.7,37.7 221.6,33 210.8,33 201.5,59.3 207.7,73.2 218.5,77.9 223.3,76.4 230.9,68.6 235.5,60.9 238.6,53.1 243.2,37.7 
		249.4,73.2 255.6,74.8 262.9,65.2 267.9,51.6 271.3,39.3 277.2,64 274.1,101 264.9,111.9 260.2,113.4 254.5,110.5 252.5,104.1 
		252.7,96.4 257.1,90.2 263.3,84 272.6,79.4 284.9,68.6 289.6,60.9 294.2,51.6 295.8,45.4 296.5,42.9 	"/>
</g>
</svg>
